<?xml version="1.0"?>
<svg xmlns="http://www.w3.org/2000/svg" xmlns:xlink="http://www.w3.org/1999/xlink" xmlns:svgjs="http://svgjs.com/svgjs" version="1.1" width="512" height="512" x="0" y="0" viewBox="0 0 469.337 469.337" style="enable-background:new 0 0 512 512" xml:space="preserve" class=""><g>
<path xmlns="http://www.w3.org/2000/svg" style="" d="M405.282,150.404c0.003-0.361,0.053-0.71,0.053-1.07C405.381,66.905,338.596,0.046,256.168,0  c-58.256-0.032-111.207,33.834-135.609,86.733c-4.594-0.773-9.235-1.241-13.891-1.4C47.758,85.333,0.002,133.09,0.002,192  s47.756,106.667,106.667,106.667h288c41.145,0.092,74.574-33.188,74.666-74.332C469.418,187.162,442.087,155.616,405.282,150.404z" fill="#ebe7f6" data-original="#ebe7f6"/>
<g xmlns="http://www.w3.org/2000/svg">
	<path style="" d="M106.668,85.333C47.758,85.333,0.002,133.09,0.002,192c0,0,0,0,0,0v0.149l0,0.116v0.022l0,0.105   v0.024l0.001,0.117v0.027c0,0.037,0.001,0.075,0.001,0.112l0,0.009c0,0.042,0,0.079,0.001,0.122l0,0.024l0.002,0.244l0,0.027   c0,0.042,0.001,0.077,0.001,0.119v0.015c0.001,0.037,0.001,0.074,0.001,0.111l0,0.021l0.002,0.118l0,0.027l0.002,0.1l0,0.026   c0,0.037,0.001,0.076,0.002,0.113l0.001,0.033l0.002,0.113l0,0.018c0,0.034,0.001,0.072,0.002,0.106l0.001,0.029   c0.001,0.039,0.001,0.076,0.002,0.115l0,0.025c0.001,0.034,0.002,0.067,0.002,0.101l0,0.026l0.003,0.115l0.001,0.03l0.003,0.106   l0,0.014l0.003,0.118l0.001,0.028l0.003,0.119l0,0.008l0.003,0.113l0.001,0.027c0.001,0.039,0.002,0.078,0.003,0.118l0.001,0.019   l0.003,0.104l0.001,0.026c0.001,0.039,0.002,0.076,0.004,0.116l0.001,0.026l0.004,0.108l0,0.015l0.004,0.116l0.001,0.031   l0.004,0.117l0.001,0.01l0.004,0.11l0.001,0.028c0.001,0.039,0.003,0.076,0.004,0.115l0.001,0.026   c0.001,0.034,0.002,0.068,0.004,0.101l0.001,0.024l0.005,0.112l0.001,0.034l0.004,0.106l0.001,0.011l0.005,0.116l0.001,0.031   c0.002,0.039,0.004,0.077,0.005,0.116l0.001,0.014l0.005,0.11l0.001,0.024l0.005,0.118l0.001,0.021l0.005,0.108l0.001,0.017   l0.006,0.119l0.001,0.024l0.006,0.116l0,0.005l0.006,0.12l0.002,0.027l0.006,0.117l0.001,0.015c0.002,0.036,0.004,0.073,0.006,0.11   l0.001,0.022c0.002,0.039,0.004,0.078,0.007,0.117l0.001,0.025c0.002,0.033,0.004,0.071,0.006,0.105l0.001,0.018   c0.002,0.039,0.004,0.079,0.007,0.118l0.002,0.025l0.007,0.116l0,0.005l0.007,0.115l0.002,0.033l0.007,0.114l0.001,0.018   c0.002,0.033,0.004,0.073,0.007,0.106l0.001,0.022c0.003,0.039,0.005,0.081,0.007,0.12l0.001,0.017l0.007,0.111l0.001,0.017   l0.007,0.117l0.002,0.024c0.006,0.081,0.011,0.161,0.016,0.242l0.002,0.023l0.008,0.119l0.001,0.015   c0.002,0.036,0.005,0.073,0.007,0.109l0.002,0.02c0.003,0.039,0.006,0.08,0.008,0.118l0.002,0.021   c0.003,0.036,0.005,0.076,0.008,0.112l0.001,0.011c0.003,0.042,0.006,0.078,0.009,0.12l0.002,0.023l0.018,0.241l0.002,0.023   l0.009,0.119l0.001,0.014l0.009,0.108l0.002,0.024l0.009,0.117l0.002,0.019c0.004,0.042,0.007,0.078,0.01,0.12l0,0.002   c0.003,0.042,0.007,0.083,0.01,0.124l0.001,0.017c0.007,0.083,0.014,0.164,0.021,0.247L0.4,201.28l0.01,0.121l0.001,0.014   l0.01,0.116l0.001,0.011l0.011,0.121l0.002,0.022c0.004,0.039,0.007,0.077,0.01,0.116l0.001,0.005   c0.004,0.041,0.007,0.08,0.011,0.121l0.002,0.022l0.023,0.244l0.002,0.017l0.012,0.123l0.001,0.008l0.011,0.12l0.001,0.011   l0.012,0.121l0.002,0.018c0.004,0.041,0.007,0.078,0.012,0.119l0,0.003c0.004,0.041,0.008,0.084,0.013,0.125l0.001,0.013   l0.026,0.251l0.001,0.012l0.013,0.124l0.001,0.01l0.013,0.118l0.001,0.01c0.004,0.041,0.008,0.081,0.013,0.122l0.002,0.016   c0.009,0.083,0.018,0.161,0.027,0.244l0.002,0.021l0.027,0.246l0.001,0.012c0.005,0.041,0.009,0.084,0.014,0.125l0.001,0.006   l0.014,0.122l0.001,0.009c0.005,0.041,0.009,0.08,0.014,0.121l0.002,0.018l0.029,0.242l0.002,0.02l0.014,0.12l0.001,0.008   l0.014,0.117l0.002,0.015c0.005,0.038,0.01,0.082,0.015,0.12l0.002,0.016l0.014,0.115l0.001,0.008l0.015,0.122l0.002,0.017   l0.031,0.246l0.002,0.013c0.01,0.082,0.021,0.166,0.032,0.248l0.002,0.012l0.016,0.123l0.002,0.011   c0.005,0.041,0.01,0.081,0.016,0.122l0.001,0.004c0.006,0.044,0.011,0.083,0.017,0.126l0.001,0.009l0.034,0.25l0.002,0.012   c0.006,0.041,0.011,0.085,0.017,0.125v0l0.017,0.125l0.001,0.008l0.018,0.124l0.001,0.011c0.011,0.082,0.024,0.168,0.035,0.249   l0.001,0.011c0.012,0.082,0.024,0.168,0.036,0.25l0.001,0.01l0.037,0.255l0,0.002l0.019,0.129l0,0.002   c0.013,0.087,0.025,0.171,0.039,0.258l0.001,0.004c0.013,0.087,0.026,0.171,0.039,0.257l0,0.002   c0.013,0.087,0.027,0.172,0.04,0.259v0.001l0.02,0.126l0.002,0.009c0.013,0.081,0.026,0.167,0.039,0.248l0.002,0.013   c0.013,0.081,0.027,0.167,0.04,0.249l0.001,0.008c0.035,0.216,0.07,0.428,0.107,0.644l0.001,0.003   c0.066,0.389,0.133,0.772,0.203,1.159l0.001,0.005c4.414,24.287,17.125,46.288,35.959,62.244l0.002,0.002   c0.448,0.38,0.897,0.755,1.351,1.128l0.002,0.002c0.063,0.052,0.125,0.102,0.188,0.154l0.012,0.01   c0.061,0.05,0.12,0.098,0.181,0.148l0.013,0.01l0.091,0.074l0.002,0.002l0.09,0.073l0.011,0.008l0.091,0.074l0.008,0.007   c0.061,0.049,0.124,0.1,0.186,0.149l0.012,0.01L40,275.271v0l0.091,0.073l0.012,0.01l0.09,0.072l0.008,0.007l0.089,0.071   l0.006,0.004l0.09,0.072l0.018,0.014l0.081,0.064l0.009,0.007l0.088,0.069l0.02,0.016l0.087,0.069l0.005,0.004l0.083,0.065   l0.021,0.016l0.086,0.067l0.017,0.014l0.074,0.058l0.02,0.016l0.085,0.066l0.02,0.015l0.076,0.059l0.015,0.012l0.084,0.065   l0.023,0.018l0.084,0.065l0.019,0.015l0.069,0.053l0.028,0.022l0.079,0.061l0.03,0.023l0.06,0.046l0.028,0.021l0.08,0.061   l0.028,0.021l0.065,0.05l0.033,0.025l0.067,0.051l0.036,0.027l0.071,0.054l0.034,0.026l0.055,0.042l0.038,0.029l0.071,0.054   l0.04,0.03l0.047,0.036l0.05,0.038l0.061,0.046l0.041,0.031l0.051,0.039l0.049,0.037l0.059,0.045l0.036,0.027l0.063,0.048   l0.045,0.034l0.056,0.042l0.034,0.025l0.075,0.056l0.038,0.029l0.049,0.036l0.037,0.028l0.071,0.053l0.044,0.033l0.047,0.034   l0.057,0.042l0.053,0.039l0.042,0.031l0.056,0.041l0.057,0.042l0.04,0.029l0.047,0.035l0.067,0.049l0.047,0.034l0.038,0.028   l0.073,0.053l0.043,0.031l0.048,0.035l0.032,0.023l0.088,0.064l0.028,0.021l0.051,0.037l0.032,0.023l0.087,0.063l0.03,0.021   l0.091,0.066l0.026,0.019l0.053,0.038l0.028,0.02l0.096,0.069l0.021,0.015l0.054,0.038l0.031,0.022l0.091,0.065l0.023,0.017   l0.057,0.041l0.019,0.014l0.097,0.069l0.028,0.02c0.06,0.043,0.115,0.082,0.175,0.124l0.021,0.015l0.183,0.129l0.01,0.007   l0.114,0.08l0.015,0.01c0.06,0.042,0.126,0.088,0.187,0.131l0.011,0.008c0.061,0.042,0.126,0.087,0.186,0.129l0.016,0.011   c0.063,0.044,0.123,0.085,0.186,0.129l0.007,0.005l0.12,0.083l0.01,0.007c0.066,0.046,0.125,0.086,0.191,0.131l0.007,0.005   c0.066,0.045,0.126,0.086,0.192,0.132l0.007,0.005c0.041,0.028,0.085,0.058,0.126,0.086l0.002,0.002   c0.066,0.045,0.13,0.088,0.196,0.133l0.004,0.003c0.066,0.045,0.128,0.087,0.195,0.132l0.006,0.004   c7.412,4.993,15.425,9.032,23.848,12.021l0.136,0.048l0.061,0.022c0.417,0.147,0.836,0.291,1.255,0.433l0.074,0.025l0.033,0.011   c0.18,0.061,0.36,0.121,0.54,0.18l0.006,0.002c0.256,0.085,0.511,0.168,0.767,0.251c22.133,7.041,45.808-5.058,53.068-27.12   c7.39-22.404-4.671-46.575-27.017-54.14l-0.215-0.073l-0.075-0.025l-0.139-0.05c-11.105-3.965-16.894-16.182-12.929-27.287   c3.032-8.493,11.073-14.165,20.09-14.172c4.573-0.043,9.033,1.425,12.688,4.175l0.117,0.086l0.074,0.057l0.189,0.146   c18.579,14.497,45.392,11.187,59.889-7.392c14.301-18.328,11.298-44.731-6.753-59.38c-0.277-0.22-0.558-0.44-0.838-0.657   l-0.027-0.021l-0.021-0.017c-0.229-0.178-0.46-0.355-0.69-0.531l-0.005-0.004c-0.21-0.16-0.419-0.318-0.63-0.477l-0.076-0.056   c-0.075-0.056-0.15-0.113-0.226-0.169c-10.153-7.576-21.578-13.275-33.736-16.83l-0.006-0.002   c-0.084-0.024-0.168-0.049-0.252-0.073l-0.001,0l-0.125-0.036l-0.005-0.001c-0.084-0.024-0.169-0.049-0.253-0.072l-0.001,0   c-0.256-0.073-0.513-0.145-0.769-0.216l-0.001,0c-0.084-0.023-0.168-0.047-0.253-0.07l-0.007-0.002   c-0.128-0.035-0.255-0.07-0.383-0.104l-0.001,0c-0.129-0.035-0.256-0.069-0.385-0.103l-0.004-0.001   c-0.085-0.023-0.17-0.045-0.255-0.067l-0.002-0.001c-0.129-0.034-0.256-0.067-0.385-0.101l-0.004-0.001   c-0.128-0.033-0.257-0.066-0.384-0.099l-0.005-0.001c-0.084-0.021-0.167-0.042-0.25-0.064l-0.011-0.003   c-0.082-0.021-0.165-0.042-0.248-0.062l-0.01-0.002l-0.122-0.03l-0.011-0.003c-0.082-0.021-0.165-0.041-0.248-0.061l-0.01-0.002   l-0.125-0.031l-0.003-0.001c-0.084-0.021-0.168-0.041-0.253-0.061l-0.012-0.003c-0.083-0.02-0.165-0.04-0.248-0.06l-0.01-0.002   l-0.122-0.029l-0.011-0.003c-0.083-0.02-0.167-0.04-0.25-0.059l-0.008-0.002l-0.125-0.029l-0.005-0.001   c-0.085-0.02-0.169-0.039-0.254-0.059l-0.008-0.002c-0.083-0.019-0.167-0.038-0.25-0.057l-0.012-0.003l-0.123-0.028l-0.007-0.002   c-0.085-0.019-0.169-0.038-0.254-0.057l-0.007-0.001l-0.128-0.029l-0.002,0l-0.126-0.028l-0.007-0.001l-0.125-0.028l-0.01-0.002   c-0.085-0.019-0.166-0.037-0.251-0.055l-0.009-0.002l-0.124-0.027l-0.009-0.002c-0.085-0.018-0.167-0.036-0.252-0.054l-0.012-0.003   l-0.125-0.027l-0.003-0.001l-0.128-0.027l-0.002,0l-0.124-0.026l-0.016-0.003c-0.082-0.017-0.162-0.034-0.245-0.051l-0.016-0.003   l-0.123-0.026l-0.005-0.001c-0.085-0.017-0.171-0.035-0.257-0.052l-0.009-0.002l-0.127-0.026l-0.002,0l-0.128-0.026l-0.005-0.001   l-0.126-0.025l-0.01-0.002c-0.083-0.016-0.167-0.033-0.249-0.049l-0.016-0.003l-0.124-0.024l-0.006-0.001l-0.124-0.024   l-0.006-0.001l-0.124-0.024l-0.013-0.003c-0.083-0.016-0.167-0.032-0.25-0.048l-0.012-0.002l-0.12-0.023l-0.019-0.004l-0.12-0.023   l-0.002,0l-0.12-0.022l-0.023-0.004l-0.119-0.022l-0.01-0.002l-0.118-0.022l-0.012-0.002l-0.119-0.022l-0.021-0.004l-0.119-0.022   l-0.009-0.002l-0.114-0.021l-0.019-0.003l-0.121-0.022l-0.012-0.002l-0.121-0.022l-0.005-0.001l-0.118-0.021l-0.026-0.005   l-0.117-0.021l-0.015-0.003l-0.108-0.019l-0.021-0.004l-0.117-0.02l-0.022-0.004l-0.118-0.02l-0.011-0.002l-0.112-0.019   l-0.022-0.004l-0.116-0.02l-0.023-0.004l-0.107-0.018l-0.015-0.003l-0.115-0.019l-0.03-0.005l-0.114-0.019l-0.018-0.003   l-0.105-0.017l-0.023-0.004l-0.115-0.019l-0.027-0.004l-0.111-0.018l-0.011-0.002l-0.117-0.019l-0.022-0.004l-0.118-0.019   l-0.018-0.003l-0.112-0.018l-0.013-0.002l-0.118-0.018l-0.024-0.004l-0.119-0.018l-0.01-0.001l-0.114-0.018l-0.021-0.003   l-0.117-0.018l-0.024-0.004l-0.113-0.017l-0.008-0.001l-0.119-0.018l-0.023-0.004l-0.118-0.017l-0.019-0.003l-0.112-0.016   l-0.015-0.002l-0.117-0.017l-0.029-0.004l-0.118-0.017l-0.005-0.001l-0.118-0.017l-0.02-0.003l-0.121-0.017l-0.016-0.002   l-0.119-0.017l-0.008-0.001l-0.121-0.017l-0.023-0.003l-0.12-0.016l-0.015-0.002l-0.114-0.015l-0.015-0.002l-0.119-0.016   l-0.025-0.003l-0.12-0.016l-0.005-0.001l-0.116-0.015l-0.026-0.003l-0.118-0.016l-0.018-0.002l-0.114-0.015l-0.013-0.002   l-0.12-0.015l-0.022-0.003l-0.121-0.015l-0.013-0.002l-0.113-0.014l-0.02-0.002l-0.117-0.015l-0.028-0.003l-0.119-0.015l-0.001,0   l-0.12-0.015l-0.024-0.003l-0.119-0.014l-0.019-0.002l-0.113-0.013l-0.014-0.002l-0.122-0.014l-0.02-0.002l-0.123-0.014   l-0.008-0.001l-0.12-0.014l-0.016-0.002l-0.12-0.014l-0.024-0.003c-0.082-0.009-0.164-0.018-0.247-0.028l-0.02-0.002l-0.123-0.014   l-0.012-0.001l-0.121-0.013l-0.009-0.001l-0.124-0.013l-0.02-0.002l-0.124-0.013l-0.006-0.001l-0.122-0.013l-0.016-0.002   l-0.122-0.013l-0.02-0.002c-0.084-0.009-0.166-0.017-0.25-0.025l-0.019-0.002l-0.124-0.012l-0.013-0.001l-0.117-0.011l-0.016-0.002   l-0.123-0.012l-0.019-0.002c-0.084-0.008-0.168-0.016-0.252-0.024l-0.018-0.002l-0.12-0.011l-0.023-0.002l-0.115-0.011   l-0.009-0.001l-0.121-0.011l-0.026-0.002l-0.12-0.011l-0.014-0.001l-0.111-0.01l-0.023-0.002l-0.118-0.01l-0.026-0.002l-0.12-0.01   l-0.007-0.001l-0.116-0.01l-0.028-0.002l-0.117-0.01l-0.026-0.002l-0.109-0.009l-0.015-0.001l-0.118-0.01l-0.03-0.002l-0.118-0.009   l-0.016-0.001L115,85.654l-0.027-0.002l-0.118-0.009l-0.022-0.002l-0.118-0.009l-0.008-0.001l-0.119-0.009l-0.029-0.002   l-0.115-0.008l-0.029-0.002l-0.102-0.007l-0.022-0.002l-0.118-0.008l-0.028-0.002l-0.12-0.008l-0.011-0.001l-0.112-0.008   l-0.026-0.002l-0.117-0.008l-0.027-0.002l-0.117-0.008l-0.006,0l-0.124-0.008l-0.022-0.001l-0.12-0.007l-0.023-0.001l-0.11-0.007   l-0.017-0.001l-0.12-0.007l-0.029-0.002l-0.122-0.007l-0.003,0l-0.122-0.007l-0.023-0.001l-0.12-0.007l-0.022-0.001l-0.118-0.006   l-0.008,0l-0.123-0.007l-0.026-0.001l-0.119-0.006l-0.021-0.001l-0.114-0.006l-0.014-0.001l-0.123-0.006l-0.024-0.001   c-0.082-0.004-0.165-0.008-0.247-0.012l-0.027-0.001l-0.119-0.005l-0.022-0.001l-0.11-0.005l-0.02-0.001l-0.118-0.005l-0.031-0.001   l-0.118-0.005l-0.021-0.001l-0.105-0.004l-0.027-0.001l-0.117-0.005l-0.029-0.001l-0.114-0.004l-0.015-0.001l-0.114-0.004   l-0.032-0.001l-0.118-0.004l-0.02-0.001l-0.11-0.004l-0.02-0.001l-0.119-0.004l-0.028-0.001l-0.119-0.004l-0.02-0.001l-0.105-0.003   l-0.03-0.001l-0.116-0.003l-0.028-0.001l-0.115-0.003l-0.009,0l-0.121-0.003l-0.028-0.001l-0.119-0.003l-0.023-0.001l-0.106-0.003   l-0.026-0.001l-0.117-0.003l-0.032-0.001l-0.118-0.003l-0.014,0l-0.113-0.002l-0.025,0l-0.119-0.002l-0.028,0l-0.109-0.002   l-0.017,0l-0.119-0.002l-0.032,0l-0.12-0.002l-0.014,0l-0.117-0.002l-0.019,0l-0.122-0.001l-0.025,0l-0.124-0.001l-0.007,0   l-0.121-0.001l-0.021,0l-0.124-0.001l-0.021,0l-0.123-0.001h-0.004l-0.124-0.001l-0.028,0l-0.121-0.001l-0.016,0l-0.114,0l-0.023,0   l-0.121,0h-0.026L106.668,85.333z" fill="#d2c9eb" data-original="#d2c9eb" class=""/>
	<path style="" d="M256.002,0l-0.116,0h-0.041l-0.074,0l-0.047,0l-0.071,0l-0.045,0l-0.069,0l-0.053,0l-0.063,0   l-0.052,0l-0.065,0l-0.051,0l-0.073,0l-0.04,0l-0.075,0l-0.045,0l-0.086,0.001l-0.026,0l-0.1,0.001l-0.019,0l-0.118,0.001l-0.007,0   l-0.105,0.001l-0.046,0l-0.072,0.001l-0.044,0l-0.069,0.001l-0.049,0l-0.069,0.001l-0.048,0.001l-0.063,0.001l-0.055,0.001   l-0.065,0.001l-0.049,0.001l-0.068,0.001l-0.048,0.001l-0.077,0.001l-0.038,0.001l-0.079,0.001l-0.038,0.001   c-0.08,0.001-0.152,0.002-0.232,0.004l-0.027,0l-0.089,0.002L253.2,0.026l-0.077,0.001l-0.044,0.001l-0.075,0.001l-0.038,0.001   l-0.077,0.002l-0.042,0.001l-0.074,0.002l-0.042,0.001l-0.072,0.002l-0.047,0.001l-0.074,0.002l-0.039,0.001l-0.084,0.002   l-0.033,0.001l-0.095,0.002l-0.021,0l-0.112,0.003l-0.047,0.001l-0.073,0.002l-0.036,0.001l-0.078,0.002l-0.042,0.001l-0.075,0.002   l-0.043,0.001l-0.07,0.002l-0.049,0.001l-0.069,0.002l-0.046,0.001l-0.069,0.002l-0.047,0.001l-0.069,0.002l-0.048,0.001   l-0.063,0.002l-0.053,0.002l-0.068,0.002l-0.047,0.001l-0.104,0.003l-0.041,0.001l-0.082,0.003l-0.043,0.001l-0.073,0.003   l-0.05,0.002l-0.062,0.002l-0.058,0.002L250.492,0.1l-0.06,0.002l-0.053,0.002l-0.059,0.002l-0.057,0.002l-0.06,0.002l-0.052,0.002   l-0.061,0.002l-0.058,0.002l-0.055,0.002l-0.075,0.003l-0.037,0.001l-0.076,0.003l-0.068,0.003l-0.087,0.004l-0.037,0.002   l-0.076,0.003L249.47,0.14l-0.063,0.003l-0.059,0.003l-0.052,0.002l-0.062,0.003l-0.055,0.002l-0.057,0.003l-0.06,0.003   l-0.051,0.002l-0.068,0.003l-0.048,0.002l-0.063,0.003l-0.052,0.002l-0.06,0.003l-0.057,0.003l-0.053,0.003l-0.059,0.003   l-0.047,0.002l-0.14,0.007l-0.035,0.002l-0.067,0.003L248.213,0.2l-0.058,0.003l-0.058,0.003l-0.058,0.003l-0.054,0.003   l-0.06,0.003l-0.053,0.003l-0.064,0.003l-0.05,0.003l-0.061,0.003l-0.057,0.003l-0.058,0.003l-0.057,0.003L247.47,0.24l-0.06,0.003   l-0.056,0.003l-0.103,0.006l-0.007,0l-0.114,0.007l-0.037,0.002l-0.078,0.005l-0.047,0.003l-0.063,0.004l-0.058,0.003l-0.058,0.003   l-0.058,0.003l-0.055,0.003l-0.058,0.004l-0.057,0.003l-0.059,0.004l-0.051,0.003l-0.062,0.004l-0.056,0.004l-0.058,0.004   l-0.058,0.004l-0.055,0.004l-0.066,0.004l-0.048,0.003l-0.111,0.007l-0.041,0.003l-0.072,0.005l-0.054,0.004l-0.06,0.004   l-0.058,0.004l-0.056,0.004l-0.054,0.004l-0.062,0.004l-0.056,0.004l-0.054,0.004l-0.058,0.004l-0.058,0.004L245.2,0.385   l-0.057,0.004l-0.054,0.004l-0.062,0.004l-0.054,0.004l-0.057,0.004L244.86,0.41l-0.056,0.004l-0.108,0.008l-0.059,0.004   l-0.068,0.005l-0.041,0.003l-0.072,0.005l-0.042,0.003l-0.069,0.005l-0.043,0.003l-0.065,0.005l-0.052,0.004l-0.058,0.005   l-0.055,0.004l-0.058,0.005l-0.058,0.005l-0.053,0.004l-0.064,0.005l-0.049,0.004l-0.066,0.005l-0.05,0.004l-0.049,0.004   l-0.236,0.02l-0.048,0.004l-0.067,0.006l-0.044,0.004l-0.068,0.006l-0.045,0.004l-0.064,0.006l-0.052,0.004l-0.056,0.005   l-0.058,0.005l-0.06,0.005l-0.049,0.004l-0.063,0.006l-0.048,0.004l-0.065,0.006l-0.051,0.005l-0.059,0.005l-0.067,0.006   l-0.045,0.004l-0.225,0.021l-0.039,0.004l-0.077,0.007L242,0.648l-0.074,0.007l-0.05,0.005l-0.062,0.006l-0.058,0.005l-0.051,0.005   l-0.061,0.006l-0.054,0.005l-0.06,0.006l-0.049,0.005l-0.062,0.006l-0.055,0.005l-0.057,0.006l-0.054,0.005l-0.06,0.006   l-0.048,0.005c-0.09,0.009-0.176,0.017-0.265,0.026l-0.016,0.002l-0.083,0.008l-0.028,0.003l-0.077,0.008l-0.037,0.004   l-0.069,0.007l-0.043,0.004l-0.068,0.007l-0.045,0.005l-0.064,0.007l-0.048,0.005l-0.065,0.007l-0.045,0.005l-0.066,0.007   l-0.041,0.004l-0.074,0.008l-0.025,0.003c-0.125,0.013-0.255,0.027-0.38,0.041l-0.031,0.003l-0.069,0.007l-0.045,0.005   l-0.066,0.007l-0.044,0.005l-0.069,0.008l-0.042,0.005l-0.067,0.008l-0.045,0.005l-0.067,0.007l-0.044,0.005l-0.069,0.008   l-0.035,0.004l-0.077,0.009l-0.032,0.004l-0.076,0.009l-0.054,0.006l-0.056,0.006l-0.109,0.013l-0.062,0.007l-0.048,0.006   l-0.066,0.008l-0.047,0.006l-0.06,0.007l-0.052,0.006l-0.061,0.007l-0.051,0.006l-0.062,0.007l-0.046,0.005l-0.068,0.008   l-0.046,0.006l-0.062,0.007l-0.051,0.006l-0.064,0.008l-0.04,0.005l-0.071,0.009l-0.03,0.004c-0.125,0.015-0.257,0.032-0.381,0.048   l-0.024,0.003l-0.08,0.01l-0.029,0.004l-0.075,0.009l-0.04,0.005l-0.07,0.009l-0.038,0.005l-0.074,0.009l-0.036,0.005l-0.074,0.01   l-0.035,0.005l-0.075,0.01l-0.037,0.005l-0.074,0.01l-0.032,0.004l-0.079,0.01l-0.008,0.001c-0.102,0.014-0.209,0.028-0.311,0.042   l-0.001,0l-0.085,0.011l-0.027,0.004l-0.076,0.01l-0.037,0.005l-0.069,0.009l-0.041,0.006l-0.071,0.01l-0.039,0.005l-0.071,0.01   l-0.037,0.005l-0.075,0.01l-0.036,0.005l-0.07,0.01l-0.042,0.006l-0.073,0.01l-0.014,0.002c-0.133,0.019-0.267,0.038-0.399,0.056   l-0.015,0.002l-0.08,0.011l-0.033,0.005l-0.072,0.01l-0.037,0.005l-0.071,0.01l-0.039,0.006l-0.075,0.011l-0.027,0.004   l-0.085,0.012l-0.022,0.003l-0.086,0.013l-0.021,0.003l-0.089,0.013l-0.01,0.002c-0.132,0.02-0.269,0.04-0.401,0.06l-0.016,0.002   l-0.093,0.014L233.401,1.7l-0.097,0.015l-0.009,0.001l-0.094,0.014l-0.016,0.002l-0.087,0.013l-0.023,0.004l-0.088,0.014   l-0.017,0.003l-0.091,0.014l-0.014,0.002l-0.202,0.031l-0.001,0c-0.136,0.021-0.274,0.043-0.411,0.065l-0.013,0.002l-0.086,0.014   l-0.023,0.004l-0.081,0.013l-0.031,0.005l-0.076,0.012l-0.033,0.005l-0.074,0.012l-0.039,0.006l-0.072,0.012l-0.029,0.005   l-0.082,0.013l-0.021,0.003c-0.202,0.033-0.398,0.066-0.6,0.1l-0.021,0.003l-0.085,0.014l-0.024,0.004l-0.078,0.013l-0.031,0.005   l-0.081,0.014l-0.024,0.004l-0.085,0.015l-0.02,0.003l-0.092,0.016l-0.006,0.001l-0.1,0.017l-0.006,0.001   c-0.206,0.036-0.412,0.072-0.618,0.108l-0.01,0.002l-0.1,0.018l-0.004,0.001l-0.096,0.017l-0.014,0.002l-0.091,0.016l-0.016,0.003   l-0.089,0.016l-0.02,0.004l-0.09,0.016l-0.008,0.001c-0.205,0.037-0.405,0.074-0.61,0.112l-0.016,0.003l-0.078,0.015l-0.034,0.006   l-0.077,0.014l-0.029,0.005l-0.081,0.015l-0.023,0.004l-0.089,0.017l-0.012,0.002l-0.093,0.018l-0.012,0.002   c-0.274,0.052-0.549,0.105-0.823,0.158l-0.006,0.001l-0.097,0.019l-0.008,0.002l-0.096,0.019l-0.01,0.002   c-0.764,0.15-1.521,0.306-2.281,0.468l-0.002,0c-0.415,0.088-0.826,0.178-1.24,0.27l-0.004,0.001   C162.891,17.112,117,66.696,108.161,128.135c-0.02,0.14-0.039,0.279-0.058,0.419c-0.011,0.078-0.023,0.159-0.034,0.237   c-0.057,0.417-0.114,0.844-0.168,1.263c-0.018,0.136-0.035,0.272-0.052,0.408l-0.003,0.02c-0.018,0.146-0.036,0.292-0.054,0.439   c-2.782,23.198,13.701,44.286,36.884,47.189c23.41,2.968,44.807-13.57,47.836-36.972l0.065-0.499l0.026-0.206   c0.014-0.097,0.029-0.195,0.042-0.292c4.651-31.428,31.586-54.729,63.356-54.808c10.849-0.052,21.528,2.696,31.004,7.98   c0.085,0.048,0.171,0.095,0.257,0.142c0.06,0.035,0.121,0.07,0.181,0.104l0.436,0.249c20.412,11.775,46.504,4.774,58.279-15.638   c11.683-20.252,4.891-46.134-15.23-58.041c-0.13-0.076-0.254-0.147-0.384-0.222l-0.017-0.01c-0.167-0.096-0.334-0.192-0.501-0.288   l-0.027-0.016l-0.086-0.049l-0.048-0.028l-0.047-0.026c-0.249-0.142-0.495-0.281-0.745-0.421c-0.071-0.04-0.141-0.078-0.213-0.118   c-0.115-0.065-0.229-0.13-0.344-0.194c-0.082-0.046-0.162-0.09-0.244-0.136l0,0l-0.091-0.051l-0.015-0.008   c-0.124-0.068-0.253-0.139-0.376-0.207l-0.017-0.009l-0.088-0.048l-0.016-0.009c-0.124-0.068-0.253-0.139-0.377-0.206l-0.017-0.009   l-0.087-0.047l-0.017-0.009c-0.128-0.07-0.254-0.138-0.382-0.207l-0.006-0.003C310.7,9.13,293.152,3.499,275.022,1.2l-0.002,0   c-0.389-0.049-0.777-0.097-1.168-0.144l-0.001,0c-0.156-0.019-0.307-0.036-0.463-0.054l-0.008-0.001l-0.113-0.013l-0.001,0   c-0.117-0.014-0.229-0.026-0.347-0.039l-0.007-0.001l-0.107-0.012l-0.018-0.002l-0.108-0.012l0,0   c-0.112-0.013-0.223-0.025-0.336-0.037l-0.025-0.003l-0.097-0.01l-0.032-0.003c-0.113-0.012-0.217-0.023-0.33-0.035l-0.003,0   l-0.1-0.01l-0.033-0.003l-0.095-0.01l-0.027-0.003c-0.103-0.011-0.2-0.021-0.302-0.031l-0.043-0.004l-0.089-0.009l-0.039-0.004   l-0.091-0.009l-0.025-0.003c-0.069-0.007-0.136-0.014-0.205-0.02l-0.011-0.001l-0.1-0.01l-0.025-0.002l-0.101-0.01l-0.024-0.002   c-0.103-0.01-0.209-0.02-0.312-0.03l-0.032-0.003l-0.091-0.009l-0.039-0.004l-0.093-0.009l-0.026-0.002   c-0.103-0.01-0.203-0.019-0.306-0.028l-0.04-0.004l-0.087-0.008L269.476,0.6l-0.087-0.008l-0.037-0.003l-0.173-0.015l-0.035-0.003   l-0.088-0.008l-0.045-0.004l-0.084-0.007l-0.047-0.004c-0.093-0.008-0.191-0.016-0.285-0.024l-0.05-0.004l-0.08-0.007l-0.054-0.004   l-0.082-0.007l-0.04-0.003l-0.185-0.015l-0.022-0.002l-0.082-0.007l-0.053-0.004l-0.079-0.006L267.81,0.46l-0.075-0.006   l-0.071-0.006l-0.113-0.009l-0.074-0.006l-0.067-0.005l-0.068-0.005l-0.07-0.005l-0.066-0.005c-0.089-0.007-0.179-0.013-0.268-0.02   l-0.056-0.004l-0.075-0.005l-0.062-0.004l-0.073-0.005l-0.068-0.005l-0.121-0.008l-0.066-0.005l-0.076-0.005l-0.061-0.004   l-0.074-0.005l-0.06-0.004l-0.076-0.005l-0.049-0.003l-0.155-0.01l-0.047-0.003l-0.082-0.005l-0.055-0.004l-0.075-0.005   L265.541,0.3l-0.122-0.008l-0.068-0.004l-0.074-0.004l-0.063-0.004l-0.072-0.004l-0.066-0.004l-0.072-0.004l-0.062-0.004   l-0.128-0.008l-0.067-0.004l-0.068-0.004l-0.07-0.004l-0.069-0.004l-0.069-0.004l-0.066-0.004l-0.125-0.007l-0.057-0.003   l-0.083-0.004l-0.061-0.003l-0.075-0.004l-0.064-0.003l-0.087-0.005l-0.048-0.002l-0.131-0.007l-0.054-0.003l-0.083-0.004   l-0.061-0.003l-0.08-0.004l-0.059-0.003l-0.12-0.006l-0.051-0.002l-0.095-0.004l-0.058-0.003l-0.082-0.004l-0.059-0.003   l-0.087-0.004l-0.05-0.002l-0.132-0.006l-0.047-0.002l-0.091-0.004l-0.058-0.002l-0.084-0.004l-0.053-0.002l-0.101-0.004   l-0.058-0.002l-0.115-0.005l-0.044-0.002l-0.097-0.004l-0.048-0.002l-0.098-0.004l-0.043-0.002l-0.135-0.005l-0.032-0.001   l-0.109-0.004l-0.046-0.002l-0.096-0.003L261.2,0.089l-0.103-0.003l-0.037-0.001l-0.133-0.004l-0.048-0.002l-0.094-0.003   l-0.052-0.002l-0.09-0.003l-0.051-0.002l-0.131-0.004l-0.015,0l-0.128-0.004l-0.051-0.001l-0.089-0.003l-0.053-0.001l-0.096-0.003   l-0.044-0.001l-0.138-0.003l-0.024-0.001l-0.112-0.003l-0.052-0.001l-0.093-0.002l-0.047-0.001l-0.116-0.003l-0.024-0.001   l-0.137-0.003l-0.046-0.001l-0.093-0.002l-0.056-0.001l-0.091-0.002l-0.047-0.001l-0.133-0.002l-0.035-0.001l-0.11-0.002   l-0.049-0.001l-0.09-0.001L258.44,0.02l-0.098-0.002L258.3,0.017l-0.137-0.002l-0.035,0l-0.106-0.001l-0.046-0.001l-0.097-0.001   l-0.049-0.001l-0.131-0.002l-0.006,0l-0.139-0.001l-0.046,0l-0.097-0.001l-0.049,0l-0.095-0.001l-0.047,0l-0.137-0.001l-0.027,0   l-0.115-0.001l-0.046,0l-0.096,0l-0.047,0l-0.107,0l-0.036,0l-0.139,0l-0.035,0l-0.104,0l-0.05,0l-0.097,0l-0.045,0L256.002,0   L256.002,0z" fill="#d2c9eb" data-original="#d2c9eb" class=""/>
</g>
<g xmlns="http://www.w3.org/2000/svg">
	<path style="" d="M86.781,182.689c1.012-1.012,1.92-2.123,2.711-3.316l0.214-0.323   c6.509-9.848,3.893-23.099-5.869-29.735c-8.371-5.691-19.604-4.635-26.767,2.517c-0.862,0.863-1.649,1.798-2.352,2.796   c-0.119,0.171-0.236,0.343-0.352,0.515l-0.022,0.033l-0.047,0.069l0,0l-0.055,0.082l-0.001,0.001l-0.052,0.077l-0.005,0.008   l-0.103,0.155l-0.015,0.022l-0.033,0.05l-0.02,0.03l-0.027,0.042l-0.043,0.065l-0.019,0.029l-0.027,0.042l-0.022,0.033   l-0.025,0.038l-0.045,0.068l-0.009,0.014l-0.047,0.072l-0.001,0.002c-0.119,0.183-0.235,0.363-0.352,0.546   c-6.109,9.768-3.251,22.629,6.418,28.892C68.346,191.042,79.579,189.864,86.781,182.689L86.781,182.689z M152.676,236.213   l0.068-0.068l0.022-0.022l0.047-0.047l0.026-0.026l0.043-0.044l0.026-0.026l0.043-0.044l0.026-0.026l0.047-0.047l0.021-0.021   l0.068-0.069l0.008-0.008l0.06-0.061l0.023-0.023l0.044-0.045l0.027-0.028l0.041-0.042l0.027-0.027l0.042-0.043l0.026-0.026   l0.048-0.05l0.019-0.019l0.066-0.069l0.017-0.018l0.05-0.052l0.023-0.024l0.045-0.047l0.025-0.026l0.041-0.043l0.027-0.028   l0.04-0.042l0.028-0.029l0.047-0.05l0.018-0.019l0.066-0.07l0.018-0.019l0.048-0.051l0.024-0.026l0.042-0.044l0.025-0.027   l0.043-0.046l0.023-0.025l0.044-0.048l0.022-0.024l0.054-0.057l0.012-0.013l0.064-0.069l0.024-0.026l0.042-0.045l0.025-0.027   l0.041-0.044l0.025-0.028l0.042-0.046l0.022-0.024l0.045-0.049l0.021-0.023c0.043-0.047,0.085-0.094,0.129-0.141l0.021-0.024   l0.043-0.048l0.026-0.028l0.037-0.041l0.029-0.032l0.038-0.042l0.026-0.029l0.044-0.049l0.019-0.022l0.064-0.072l0.006-0.006   l0.058-0.065l0.022-0.025l0.041-0.046l0.025-0.028l0.04-0.045l0.024-0.028l0.04-0.045l0.024-0.027l0.044-0.05l0.02-0.022   l0.063-0.072l0.008-0.01l0.054-0.062l0.021-0.024l0.042-0.048l0.023-0.027l0.039-0.045l0.025-0.028l0.04-0.046l0.023-0.027   l0.044-0.051l0.018-0.021l0.062-0.072l0.015-0.017l0.047-0.055l0.024-0.027l0.038-0.045l0.025-0.029l0.039-0.046l0.023-0.028   l0.041-0.048l0.021-0.024l0.051-0.06l0.011-0.012l0.062-0.073l0.016-0.019l0.045-0.054l0.021-0.025l0.042-0.049l0.021-0.026   l0.04-0.047l0.023-0.027l0.042-0.05l0.019-0.022l0.058-0.069l0.003-0.004l0.061-0.073l0.02-0.024l0.04-0.048l0.024-0.029   l0.038-0.046l0.023-0.027l0.039-0.047l0.022-0.027l0.04-0.049l0.02-0.025l0.049-0.06l0.026-0.032l0.044-0.054l0.022-0.027   l0.038-0.047l0.024-0.029l0.037-0.046l0.023-0.028l0.038-0.047l0.022-0.027l0.045-0.056l0.014-0.017l0.06-0.074l0.012-0.015   l0.047-0.059l0.02-0.026l0.038-0.048l0.025-0.031l0.034-0.043l0.025-0.031l0.036-0.046l0.022-0.028l0.046-0.058l0.012-0.015   l0.059-0.075l0.015-0.02l0.044-0.055l0.02-0.026l0.038-0.048l0.023-0.029l0.036-0.047l0.023-0.029l0.036-0.047l0.022-0.028   l0.048-0.062l0.009-0.012l0.059-0.076l0.012-0.015l0.045-0.059l0.02-0.026l0.038-0.049l0.022-0.029l0.036-0.048l0.02-0.027   l0.04-0.053l0.017-0.023l0.055-0.072l0.002-0.002l0.057-0.076l0.017-0.023l0.041-0.054l0.02-0.026l0.036-0.048l0.022-0.03   l0.036-0.048l0.021-0.028l0.038-0.051l0.018-0.024l0.113-0.152l0.016-0.022l0.039-0.053l0.02-0.028l0.035-0.048l0.022-0.03   l0.034-0.047l0.02-0.028l0.041-0.057l0.014-0.019l0.057-0.077l0.001-0.001l0.053-0.073l0.019-0.026l0.037-0.051l0.02-0.027   l0.036-0.049l0.019-0.027l0.039-0.055l0.016-0.022l0.043-0.06l0.012-0.017l0.055-0.077l0.007-0.009l0.048-0.068l0.016-0.022   l0.04-0.056l0.017-0.024l0.038-0.054l0.018-0.026l0.04-0.057l0.014-0.019l0.049-0.069l0.006-0.008l0.055-0.078l0.01-0.014   l0.043-0.062l0.018-0.026l0.036-0.052l0.018-0.026l0.036-0.052l0.018-0.027l0.039-0.056l0.014-0.021l0.052-0.076l0.001-0.002   l0.054-0.079l0.013-0.019l0.04-0.058l0.019-0.027l0.035-0.051l0.019-0.028l0.034-0.05l0.02-0.029l0.036-0.052l0.017-0.024   l0.052-0.077l0-0.001l0.053-0.078l0.015-0.022l0.037-0.055l0.02-0.03l0.032-0.049l0.02-0.03l0.033-0.049l0.019-0.029l0.035-0.053   l0.017-0.025l0.05-0.076l0.011-0.017l0.04-0.061l0.017-0.026l0.035-0.053l0.018-0.028l0.033-0.05l0.019-0.029l0.033-0.05   l0.019-0.028l0.04-0.062l0.01-0.015l0.052-0.08l0.009-0.013l0.042-0.065l0.016-0.024l0.035-0.054l0.018-0.027l0.035-0.054   l0.017-0.026l0.035-0.055l0.015-0.024l0.044-0.069l0.006-0.01l0.051-0.081l0.008-0.013l0.042-0.066l0.015-0.024l0.034-0.055   l0.018-0.028l0.033-0.052l0.017-0.027l0.034-0.054l0.017-0.027l0.044-0.071l0.004-0.007l0.05-0.08l0.012-0.02l0.038-0.061   l0.015-0.024l0.033-0.054l0.018-0.029l0.033-0.054l0.016-0.025l0.037-0.061l0.011-0.018c0.032-0.053,0.065-0.107,0.097-0.16   l0.016-0.027l0.032-0.053l0.018-0.029l0.032-0.052l0.017-0.028l0.033-0.054l0.015-0.025l0.037-0.061l0.012-0.019l0.096-0.16   l0.015-0.025l0.033-0.055l0.017-0.029l0.03-0.051l0.018-0.03l0.032-0.055l0.015-0.025l0.04-0.068l0.006-0.011   c0.032-0.055,0.064-0.11,0.096-0.165l0.01-0.016l0.037-0.064l0.013-0.022l0.035-0.06l0.013-0.022l0.037-0.064l0.01-0.017   l0.043-0.075l0.004-0.007l0.048-0.084l0.002-0.003l0.044-0.077l0.011-0.019l0.036-0.063l0.012-0.021l0.034-0.059l0.014-0.024   l0.035-0.063l0.01-0.018l0.093-0.165l0.008-0.014l0.037-0.066l0.014-0.025l0.032-0.058l0.013-0.023l0.033-0.06l0.012-0.023   l0.036-0.065l0.009-0.017c0.031-0.056,0.061-0.111,0.092-0.167l0.006-0.01l0.038-0.07l0.013-0.023l0.032-0.06l0.013-0.024   l0.031-0.058l0.014-0.025l0.035-0.064l0.01-0.018l0.089-0.165l0.01-0.019l0.034-0.063l0.013-0.025l0.032-0.059l0.012-0.023   l0.033-0.062l0.011-0.021l0.039-0.074l0.004-0.007l0.044-0.084l0.006-0.011l0.038-0.072l0.012-0.023l0.03-0.058l0.015-0.029   l0.029-0.056l0.014-0.027l0.029-0.057l0.014-0.026l0.036-0.07l0.006-0.012l0.043-0.085l0.004-0.008l0.038-0.073l0.013-0.026   l0.029-0.056l0.015-0.029l0.028-0.056l0.013-0.026l0.031-0.061l0.011-0.022l0.041-0.08l0.001-0.001l0.043-0.085l0.006-0.013   l0.036-0.071l0.011-0.021l0.03-0.06l0.014-0.028l0.028-0.056l0.014-0.028l0.029-0.059l0.012-0.023   c0.028-0.057,0.055-0.111,0.083-0.168l0.007-0.014l0.034-0.07l0.01-0.021l0.031-0.063l0.012-0.024l0.03-0.061l0.011-0.022   l0.034-0.069l0.007-0.014c0.027-0.055,0.055-0.115,0.082-0.17l0.007-0.016l0.034-0.07l0.009-0.018l0.031-0.066l0.009-0.02   l0.033-0.069l0.008-0.016l0.036-0.076l0.004-0.009c0.027-0.057,0.054-0.114,0.081-0.171l0.008-0.017l0.031-0.066l0.011-0.025   l0.027-0.058l0.013-0.029l0.028-0.06l0.01-0.022l0.035-0.075l0.004-0.009l0.04-0.087l0.001-0.002l0.037-0.081l0.01-0.021   l0.029-0.064l0.01-0.023l0.028-0.062l0.011-0.024l0.03-0.066l0.008-0.018l0.037-0.083l0.001-0.001l0.04-0.089l0.001-0.003   l0.036-0.081l0.009-0.02l0.029-0.065l0.01-0.023l0.027-0.061l0.012-0.026l0.028-0.063l0.009-0.021l0.037-0.083l0-0.001l0.038-0.087   l0.006-0.014l0.03-0.069l0.012-0.027l0.026-0.06l0.011-0.026l0.026-0.061l0.01-0.024l0.031-0.071l0.005-0.013l0.074-0.173   l0.006-0.014l0.03-0.071l0.009-0.022l0.027-0.063l0.011-0.025l0.025-0.061l0.011-0.026l0.029-0.07l0.005-0.013l0.072-0.173   l0.008-0.02l0.026-0.064l0.012-0.028l0.024-0.059l0.011-0.028l0.024-0.058l0.012-0.028l0.027-0.066l0.008-0.019l0.034-0.085   l0.007-0.017l0.027-0.067l0.011-0.028l0.023-0.057l0.012-0.031l0.023-0.057l0.011-0.027l0.024-0.061l0.011-0.026l0.031-0.078   l0.002-0.005l0.035-0.088l0.005-0.014l0.029-0.073l0.008-0.021l0.024-0.062l0.011-0.029l0.024-0.06l0.01-0.025l0.026-0.066   l0.007-0.019c0.022-0.057,0.045-0.117,0.067-0.174l0.006-0.016l0.027-0.07l0.009-0.022l0.025-0.065l0.009-0.025l0.024-0.063   l0.009-0.023l0.025-0.065l0.009-0.023c0.022-0.059,0.043-0.115,0.065-0.174l0.005-0.013l0.027-0.073l0.008-0.022l0.024-0.064   l0.009-0.025l0.024-0.066l0.008-0.02l0.027-0.073l0.005-0.014l0.064-0.175l0.007-0.02l0.024-0.066l0.01-0.027l0.022-0.06   l0.01-0.028l0.022-0.061l0.009-0.025l0.025-0.07l0.006-0.017l0.031-0.088l0.002-0.004l0.029-0.082l0.007-0.02l0.024-0.067   l0.009-0.025l0.021-0.059l0.011-0.03l0.021-0.06l0.009-0.026l0.027-0.077l0.003-0.008l0.031-0.089l0.003-0.009l0.026-0.076   l0.008-0.025l0.021-0.063l0.009-0.025l0.022-0.063l0.008-0.025l0.023-0.066l0.007-0.021l0.027-0.08l0.003-0.008l0.03-0.09   l0.003-0.009l0.026-0.077l0.008-0.024l0.022-0.065l0.008-0.024l0.021-0.065l0.008-0.023l0.023-0.07l0.006-0.018l0.057-0.176   l0.006-0.02l0.021-0.066l0.01-0.03l0.019-0.058l0.009-0.029l0.02-0.061l0.009-0.027l0.023-0.072l0.004-0.013l0.056-0.178   l0.005-0.018l0.021-0.068l0.008-0.027l0.02-0.063l0.008-0.026l0.019-0.061l0.008-0.027l0.023-0.074l0.004-0.012   c0.018-0.06,0.036-0.118,0.054-0.178l0.006-0.021l0.02-0.065l0.009-0.029l0.018-0.06l0.008-0.026l0.019-0.063l0.008-0.027   l0.022-0.073l0.004-0.013l0.026-0.088l0.005-0.018l0.021-0.072l0.006-0.021l0.019-0.066l0.008-0.027l0.018-0.062l0.008-0.027   l0.019-0.066l0.006-0.021l0.052-0.179l0.002-0.009l0.023-0.08l0.005-0.019l0.02-0.069l0.007-0.024l0.019-0.066l0.006-0.022   l0.02-0.072l0.004-0.016c0.016-0.058,0.034-0.121,0.05-0.179l0.004-0.016l0.02-0.072l0.007-0.025l0.017-0.063l0.007-0.027   l0.017-0.064l0.007-0.026l0.017-0.065l0.006-0.024l0.048-0.178l0.004-0.016l0.019-0.072l0.007-0.025l0.017-0.064l0.007-0.027   l0.017-0.065l0.006-0.023l0.019-0.074l0.004-0.015c0.015-0.058,0.031-0.119,0.046-0.177l0.007-0.026l0.016-0.064l0.007-0.026   l0.016-0.063l0.007-0.027l0.016-0.064l0.006-0.024l0.019-0.077l0.003-0.011l0.023-0.091l0.002-0.007l0.02-0.08l0.007-0.027   l0.015-0.062l0.007-0.028l0.015-0.06l0.008-0.031l0.015-0.063l0.006-0.024l0.02-0.085l0.001-0.003l0.022-0.092l0.001-0.006   l0.019-0.081l0.006-0.024l0.016-0.065l0.006-0.026l0.015-0.063l0.006-0.027l0.015-0.066l0.005-0.023l0.02-0.084l0.001-0.004   l0.021-0.09l0.004-0.018l0.016-0.072l0.005-0.024l0.015-0.065l0.006-0.028l0.014-0.061l0.007-0.029l0.015-0.068l0.004-0.018   l0.04-0.18l0.005-0.023l0.014-0.065l0.007-0.031l0.013-0.06l0.006-0.03l0.013-0.06l0.006-0.028l0.015-0.07l0.004-0.019l0.019-0.09   l0.001-0.003l0.018-0.085l0.006-0.027l0.013-0.063l0.006-0.031l0.012-0.058l0.007-0.031l0.012-0.06l0.006-0.031l0.014-0.067   l0.004-0.02l0.018-0.089l0.003-0.017l0.015-0.074l0.005-0.025l0.012-0.062l0.007-0.033l0.012-0.059l0.006-0.03l0.012-0.062   l0.005-0.027l0.015-0.076l0.003-0.014l0.017-0.088l0.006-0.03l0.011-0.059l0.006-0.032l0.011-0.057l0.007-0.034l0.01-0.055   l0.007-0.034l0.01-0.056l0.006-0.034l0.014-0.077l0.002-0.009l0.017-0.089l0.005-0.027l0.011-0.062l0.006-0.034l0.01-0.054   l0.007-0.037l0.01-0.055l0.006-0.032l0.011-0.06l0.005-0.029c0.011-0.059,0.021-0.119,0.031-0.178l0.004-0.023l0.012-0.066   l0.005-0.03l0.01-0.058l0.006-0.034l0.01-0.057l0.005-0.031l0.01-0.06l0.005-0.031l0.015-0.088l0.001-0.004l0.014-0.084   l0.005-0.029l0.01-0.061l0.005-0.032l0.009-0.056l0.006-0.035l0.009-0.057l0.005-0.031l0.011-0.069l0.003-0.02l0.014-0.09   l0.002-0.015l0.012-0.073l0.005-0.032l0.009-0.059l0.005-0.031l0.009-0.06l0.005-0.031l0.009-0.06l0.005-0.03l0.01-0.068   l0.003-0.022l0.013-0.089l0.002-0.017l0.011-0.071l0.005-0.032l0.008-0.057l0.005-0.036l0.007-0.052l0.005-0.037l0.008-0.057   l0.005-0.032l0.009-0.066l0.003-0.023l0.012-0.088l0.004-0.028l0.008-0.061l0.005-0.037l0.007-0.053l0.005-0.036l0.007-0.055   l0.005-0.035l0.008-0.062l0.003-0.025l0.011-0.08l0.002-0.011l0.012-0.088l0.004-0.029l0.008-0.06l0.004-0.034l0.007-0.057   l0.004-0.034l0.007-0.055l0.005-0.035l0.008-0.061l0.004-0.028l0.011-0.089l0-0.003l0.01-0.085l0.004-0.033l0.006-0.055   l0.005-0.039l0.006-0.052l0.004-0.035l0.007-0.058l0.004-0.033l0.008-0.07l0.002-0.017c0.004-0.032,0.007-0.059,0.01-0.091   l0.001-0.01l0.009-0.081l0.002-0.023l0.007-0.064l0.004-0.034l0.006-0.055l0.004-0.037l0.006-0.052l0.004-0.038l0.006-0.057   l0.004-0.033l0.009-0.087l0.003-0.026l0.006-0.063l0.004-0.034l0.006-0.055l0.004-0.039l0.005-0.049l0.004-0.041l0.005-0.051   l0.004-0.039l0.006-0.059l0.003-0.03l0.008-0.085l0.004-0.041l0.005-0.049l0.004-0.04l0.005-0.05l0.004-0.04l0.005-0.051   l0.004-0.039l0.005-0.051l0.003-0.039l0.006-0.071l0.002-0.017l0.008-0.089l0.003-0.031l0.005-0.057l0.003-0.039l0.004-0.05   l0.004-0.041l0.004-0.051l0.003-0.037l0.005-0.057l0.003-0.033l0.006-0.074l0.003-0.036l0.005-0.065l0.003-0.038l0.004-0.053   l0.003-0.036l0.004-0.052l0.003-0.039l0.004-0.052l0.003-0.039l0.004-0.054l0.003-0.035l0.006-0.087l0.002-0.028l0.004-0.06   l0.003-0.04l0.003-0.049l0.003-0.04l0.003-0.049l0.003-0.042l0.003-0.048l0.003-0.04l0.003-0.055l0.002-0.035l0.005-0.086   l0.002-0.037l0.003-0.051l0.003-0.045l0.003-0.045l0.003-0.044l0.002-0.045l0.002-0.044l0.003-0.048l0.002-0.041l0.003-0.048   l0.002-0.044l0.004-0.081l0.002-0.038l0.003-0.052l0.002-0.044l0.002-0.043l0.002-0.048l0.002-0.038l0.003-0.052l0.002-0.037   l0.002-0.049l0.002-0.041l0.004-0.099l0.001-0.032l0.002-0.05l0.002-0.038l0.002-0.048l0.002-0.042l0.002-0.047l0.001-0.04   l0.002-0.048l0.002-0.041l0.002-0.048l0.001-0.035l0.003-0.096l0.001-0.039l0.002-0.047l0.001-0.042l0.001-0.047l0.001-0.043   l0.001-0.044l0.001-0.045l0.002-0.047l0.001-0.04l0.001-0.048l0.001-0.038l0.002-0.097l0.001-0.037l0.001-0.053l0.001-0.033   l0.001-0.055l0.001-0.034l0.001-0.054l0.001-0.033l0.001-0.053l0.001-0.037c0.001-0.065,0.002-0.129,0.004-0.194l0.001-0.027   l0.001-0.053l0.001-0.036l0.001-0.053l0.001-0.034l0.001-0.054c0-0.01,0-0.022,0-0.032l0.001-0.056l0.001-0.032   c0.001-0.065,0.001-0.13,0.002-0.195l0-0.029l0-0.057l0-0.03l0-0.058l0-0.03l0-0.058l0-0.025l0-0.063l0-0.011   c0-0.073,0-0.147,0-0.22c0-0.008,0-0.013,0-0.021l0-0.06c0-0.008,0-0.02,0-0.028c0-0.02,0-0.038,0-0.059c0-0.01,0-0.019,0-0.029   c0-0.019,0-0.038,0-0.057l0-0.029c0-0.021,0-0.04,0-0.061l0-0.003c0-0.051-0.001-0.104-0.001-0.155l0-0.006l0-0.056l0-0.035   l-0.001-0.053l0-0.032l-0.001-0.058l0-0.028l-0.001-0.061l0-0.022l-0.001-0.064l0-0.003c-0.001-0.049-0.002-0.103-0.003-0.153   v-0.009l-0.001-0.062l-0.001-0.028l-0.001-0.055l-0.001-0.034l-0.001-0.056l-0.001-0.028l-0.001-0.061l0-0.015l-0.006-0.225l0-0.01   l-0.002-0.063l-0.001-0.026l-0.002-0.06l-0.001-0.027l-0.002-0.058l-0.001-0.032l-0.002-0.057l-0.001-0.022l-0.007-0.212   l-0.001-0.019l-0.002-0.064l-0.001-0.022l-0.002-0.061l-0.001-0.027l-0.003-0.06l-0.001-0.026l-0.002-0.061l-0.001-0.019   c-0.003-0.073-0.006-0.144-0.009-0.217l0-0.015l-0.003-0.062l-0.001-0.028l-0.003-0.06l-0.001-0.024l-0.003-0.063l-0.001-0.022   l-0.003-0.065l0-0.005c-0.004-0.075-0.007-0.15-0.012-0.225l-0.001-0.021l-0.003-0.064l-0.001-0.023l-0.003-0.06l-0.002-0.028   l-0.003-0.06l-0.001-0.021c-0.004-0.075-0.009-0.149-0.013-0.224l0-0.006l-0.004-0.064l-0.001-0.024l-0.004-0.06l-0.002-0.027   l-0.004-0.06l-0.001-0.023l-0.004-0.065l-0.001-0.014c-0.005-0.077-0.01-0.154-0.016-0.23l0-0.004l-0.004-0.066l-0.002-0.021   l-0.005-0.065l-0.001-0.019l-0.005-0.066l-0.001-0.018l-0.005-0.07l0-0.004c-0.006-0.08-0.012-0.161-0.019-0.241l0,0l-0.006-0.071   l-0.001-0.016l-0.005-0.067l-0.002-0.02l-0.006-0.068l-0.001-0.01c-0.011-0.133-0.022-0.261-0.034-0.394l-0.001-0.012l-0.006-0.071   l-0.001-0.014l-0.006-0.07l-0.001-0.014c-0.01-0.105-0.02-0.21-0.03-0.315l0-0.001l-0.007-0.076l-0.001-0.009l-0.007-0.075   l-0.001-0.008c-0.016-0.16-0.033-0.32-0.05-0.48l-0.001-0.009l-0.008-0.076l-0.001-0.005c-0.014-0.133-0.029-0.266-0.044-0.398   L171,183.61l-0.008-0.072l-0.001-0.012l-0.008-0.072l-0.001-0.011c-0.015-0.132-0.032-0.264-0.048-0.396l-0.001-0.007l-0.009-0.073   l-0.002-0.013l-0.009-0.073l-0.001-0.005c-0.016-0.131-0.034-0.263-0.051-0.393l-0.002-0.016l-0.009-0.068l-0.002-0.015   l-0.01-0.071l-0.001-0.009c-0.018-0.134-0.036-0.264-0.055-0.398l-0.001-0.004l-0.011-0.077l-0.001-0.006   c-0.023-0.161-0.047-0.321-0.071-0.482l-0.001-0.003l-0.012-0.078l-0.001-0.003c-0.082-0.541-0.171-1.078-0.268-1.617l0-0.001   c-1.39-7.793-4.221-15.259-8.347-22.015c-6.144-10.053-19.275-13.222-29.328-7.078c-10.053,6.144-13.222,19.275-7.078,29.328   c5.141,8.402,3.834,19.235-3.158,26.173c-8.337,8.318-21.833,8.318-30.17,0l-0.431-0.443c-8.264-8.445-21.767-8.723-30.37-0.624   c-0.145,0.137-0.287,0.275-0.427,0.416c-7.913,7.881-8.264,20.58-0.799,28.886c0.203,0.22,0.404,0.435,0.61,0.654l0,0   c0.023,0.024,0.045,0.047,0.068,0.071L61,235.017l0.042,0.044l0.041,0.043l0.002,0.003c0.213,0.224,0.425,0.443,0.642,0.664   l0.003,0.003l0.067,0.068l0.011,0.011l0.06,0.061l0.021,0.021l0.052,0.053l0.029,0.029l0.045,0.045l0.042,0.042l0.033,0.033   l0.076,0.076C87.159,261.207,127.682,261.207,152.676,236.213L152.676,236.213z" fill="#f4f1fa" data-original="#f4f1fa"/>
	<path style="" d="M256.002,42.667l-0.132,0h-0.024l-0.129,0h-0.02c-0.291,0.001-0.581,0.003-0.871,0.006h-0.011   c-0.255,0.003-0.509,0.007-0.763,0.011c-23.229,0.523-41.708,19.649-41.431,42.883c0.279,23.498,19.393,42.407,42.892,42.435   c0.077,0,0.157,0,0.234-0.001l0.254-0.001c11.791,0.009,21.343,9.576,21.333,21.367c-0.007,9.405-6.169,17.698-15.172,20.42   l-0.141,0.042l-0.077,0.022l-0.219,0.062c-22.704,6.409-35.99,29.929-29.759,52.683c6.121,22.412,29.154,35.709,51.624,29.802   c0.252-0.067,0.494-0.133,0.746-0.202l0.022-0.006c0.378-0.104,0.754-0.21,1.131-0.318l0.004-0.001   c0.26-0.075,0.519-0.15,0.778-0.227l0.076-0.023l0.17-0.05c6.276-1.871,12.364-4.319,18.188-7.314l0.002-0.001   c0.119-0.062,0.235-0.121,0.354-0.183l0.006-0.003c0.072-0.037,0.14-0.073,0.212-0.11l0.003-0.001   c0.119-0.062,0.234-0.122,0.353-0.185l0.008-0.004c0.113-0.059,0.23-0.121,0.343-0.181l0.018-0.01   c0.113-0.06,0.228-0.121,0.34-0.182l0.012-0.006l0.201-0.108l0.022-0.012l0.111-0.06l0.023-0.013   c0.065-0.035,0.128-0.069,0.192-0.104l0.03-0.016l0.104-0.057l0.026-0.014l0.063-0.034l0.01-0.006l0.124-0.068l0.018-0.01   c0.041-0.023,0.077-0.042,0.118-0.065l0.016-0.009l0.067-0.037l0.003-0.002l0.129-0.071l0.017-0.009l0.198-0.11l0.022-0.012   l0.104-0.058l0.033-0.018l0.192-0.108l0.019-0.011l0.112-0.063l0.021-0.012l0.064-0.036l0.002-0.001l0.124-0.07l0.032-0.018   l0.105-0.06l0.022-0.013l0.063-0.036l0.02-0.011l0.108-0.062l0.028-0.016l0.098-0.056l0.032-0.018l0.055-0.032l0.044-0.025   l0.081-0.047l0.04-0.023l0.055-0.032l0.072-0.042l0.053-0.031l0.038-0.022l0.092-0.053l0.033-0.019l0.057-0.033l0.041-0.024   l0.085-0.05l0.036-0.021l0.093-0.055l0.031-0.018l0.061-0.036l0.021-0.012l0.101-0.059l0.039-0.023l0.069-0.04l0.056-0.033   l0.053-0.031l0.043-0.025l0.08-0.048l0.044-0.026l0.058-0.035l0.065-0.039l0.051-0.031l0.048-0.029l0.072-0.043l0.043-0.026   l0.053-0.032l0.073-0.044l0.047-0.028l0.053-0.032l0.063-0.038l0.059-0.036l0.043-0.026l0.081-0.049l0.042-0.025l0.053-0.032   l0.051-0.031l0.068-0.041l0.047-0.029l0.062-0.038l0.061-0.037l0.048-0.03l0.054-0.033l0.071-0.044l0.042-0.025l0.061-0.038   l0.056-0.035l0.059-0.036l0.039-0.024l0.081-0.051l0.04-0.025l0.063-0.039l0.044-0.027l0.072-0.045l0.037-0.023l0.083-0.052   l0.037-0.023l0.059-0.037l0.045-0.028l0.075-0.047l0.038-0.024l0.083-0.052l0.034-0.021l0.065-0.041l0.034-0.022l0.083-0.053   l0.036-0.023l0.083-0.053l0.026-0.016l0.073-0.047l0.032-0.02l0.086-0.055l0.032-0.021l0.07-0.045l0.046-0.029l0.065-0.042   l0.038-0.025l0.083-0.054l0.032-0.021l0.07-0.045l0.027-0.018l0.086-0.055l0.033-0.021l0.088-0.057l0.026-0.017l0.074-0.048   l0.027-0.018l0.088-0.058l0.029-0.019l0.087-0.057l0.026-0.017l0.076-0.05l0.024-0.016l0.09-0.059l0.027-0.018l0.083-0.055   l0.023-0.015l0.08-0.053l0.03-0.02l0.088-0.059l0.024-0.016l0.084-0.056l0.014-0.009l0.091-0.061l0.028-0.019l0.088-0.059   l0.026-0.017l0.081-0.054l0.015-0.01l0.095-0.064l0.02-0.014l0.097-0.066l0.006-0.004l0.091-0.062l0.02-0.014l0.093-0.063   l0.02-0.013l0.094-0.064l0.013-0.009l0.087-0.059l0.021-0.015l0.091-0.062l0.023-0.016l0.09-0.062l0.005-0.003l0.094-0.065   l0.023-0.016l0.092-0.064l0.017-0.012l0.087-0.06l0.014-0.01l0.095-0.066l0.019-0.013l0.094-0.065l0.017-0.012l0.083-0.058   l0.019-0.013l0.088-0.061l0.029-0.02l0.089-0.062l0.012-0.009l0.084-0.059l0.024-0.017l0.089-0.063l0.023-0.016l0.088-0.062   l0.007-0.005l0.094-0.067l0.02-0.014l0.093-0.066l0.015-0.01l0.096-0.068l0.003-0.002l0.095-0.068l0.022-0.016l0.093-0.067   l0.01-0.007l0.09-0.065l0.014-0.01l0.095-0.068l0.016-0.011l0.097-0.07l0.008-0.006l0.091-0.066l0.014-0.01l0.095-0.069   l0.015-0.011c0.067-0.048,0.128-0.093,0.194-0.141l0.016-0.011c0.031-0.023,0.064-0.047,0.095-0.069l0.014-0.01l0.094-0.069   l0.005-0.004l0.096-0.071l0.016-0.011l0.096-0.07l0.008-0.006l0.2-0.148l0.011-0.008l0.099-0.073l0.004-0.003l0.096-0.071   l0.011-0.008l0.097-0.072l0.01-0.007c0.066-0.049,0.135-0.101,0.201-0.15l0.006-0.005l0.099-0.074l0.009-0.007l0.198-0.15   l0.01-0.008l0.099-0.075l0.002-0.002l0.097-0.074l0.008-0.006l0.097-0.074l0.01-0.007l0.099-0.076l0.002-0.001   c0.035-0.027,0.067-0.051,0.101-0.077l0.003-0.002c0.033-0.025,0.067-0.052,0.1-0.077l0.008-0.006   c0.067-0.052,0.133-0.103,0.201-0.154l0.005-0.004l0.099-0.077l0.007-0.005c0.067-0.052,0.135-0.104,0.202-0.156l0.003-0.003   l0.102-0.079l0.001-0.001c0.069-0.054,0.134-0.105,0.203-0.159l0.006-0.005c0.104-0.081,0.203-0.159,0.306-0.24l0.002-0.002   c0.103-0.081,0.204-0.161,0.306-0.242l0.003-0.002c0.069-0.054,0.133-0.106,0.202-0.16l0.004-0.003   c0.205-0.164,0.407-0.326,0.611-0.492l0.001-0.001c0.102-0.083,0.202-0.164,0.304-0.247l0.001-0.001   c0.068-0.055,0.133-0.108,0.201-0.164l0.003-0.003l0.1-0.082l0.001-0.001c0.27-0.222,0.538-0.445,0.806-0.67l0.002-0.001   c0.268-0.225,0.533-0.45,0.799-0.677l0.002-0.001c13.271-11.357,23.557-25.793,29.958-42.044l0.001-0.002   c0.049-0.124,0.097-0.247,0.145-0.371l0.001-0.001c0.048-0.124,0.096-0.247,0.144-0.372l0.001-0.002   c0.032-0.083,0.063-0.163,0.094-0.246l0.001-0.004c0.048-0.125,0.094-0.247,0.141-0.372l0-0.001   c0.047-0.125,0.094-0.249,0.14-0.374l0.001-0.002l0.092-0.249l0,0c0.062-0.167,0.122-0.333,0.184-0.5l0.001-0.004   c0.031-0.084,0.059-0.161,0.089-0.245l0.003-0.007l0.089-0.246l0.001-0.003l0.043-0.122l0.003-0.007   c0.03-0.084,0.059-0.164,0.088-0.248l0,0l0.043-0.123l0.002-0.006c0.03-0.084,0.057-0.162,0.086-0.246l0.002-0.006   c0.015-0.042,0.028-0.081,0.043-0.123l0.001-0.004l0.085-0.246l0.003-0.008l0.042-0.123l0-0.001l0.043-0.126v-0.001l0.041-0.12   l0.005-0.013c0.042-0.124,0.084-0.248,0.126-0.372l0.001-0.003c0.028-0.085,0.055-0.164,0.083-0.249l0.002-0.006l0.041-0.122   l0.002-0.006l0.081-0.245l0.003-0.01c0.013-0.04,0.027-0.082,0.04-0.122l0.001-0.003l0.082-0.251l0.001-0.005   c0.042-0.128,0.081-0.249,0.122-0.377l0.003-0.008c0.026-0.08,0.053-0.167,0.079-0.247l0.003-0.008   c0.041-0.128,0.08-0.252,0.12-0.38l0-0.001l0.04-0.127l0.001-0.003l0.079-0.254l0.001-0.002c0.04-0.128,0.078-0.253,0.118-0.381   l0.002-0.006c0.026-0.086,0.051-0.166,0.077-0.251l0.001-0.004c0.012-0.04,0.025-0.082,0.037-0.122l0.004-0.012   c0.024-0.08,0.049-0.162,0.073-0.242l0.004-0.014l0.036-0.121l0.002-0.007c0.024-0.081,0.049-0.166,0.073-0.246l0.004-0.014   c0.012-0.04,0.024-0.081,0.036-0.122l0.001-0.004c0.024-0.083,0.049-0.166,0.073-0.25l0.004-0.013l0.072-0.247l0.002-0.008   l0.035-0.123l0.002-0.007c0.024-0.084,0.049-0.169,0.072-0.253l0.001-0.003l0.036-0.127l0.001-0.004   c0.024-0.084,0.047-0.166,0.07-0.25l0.004-0.013l0.034-0.122l0.001-0.004c0.023-0.084,0.047-0.167,0.07-0.25l0.004-0.013   c0.011-0.041,0.022-0.081,0.034-0.121l0.002-0.006l0.033-0.121l0.002-0.007l0.034-0.123l0.003-0.011l0.067-0.246l0.004-0.014   l0.032-0.119l0.004-0.015c0.022-0.081,0.043-0.163,0.065-0.245l0.004-0.013c0.011-0.041,0.021-0.081,0.032-0.122l0.002-0.009   l0.066-0.25l0.003-0.01c0.022-0.084,0.044-0.169,0.066-0.253l0.001-0.005l0.033-0.126l0.002-0.008   c0.021-0.082,0.043-0.169,0.064-0.25l0.003-0.011c0.01-0.038,0.021-0.08,0.03-0.118l0.006-0.022c0.02-0.079,0.04-0.16,0.06-0.239   l0.005-0.018l0.03-0.118l0.003-0.013l0.03-0.122l0-0.001l0.03-0.123l0.004-0.015l0.03-0.123l0.001-0.005l0.031-0.126l0.001-0.004   l0.029-0.121l0.005-0.02c0.02-0.082,0.039-0.163,0.059-0.245l0.003-0.011c0.01-0.041,0.019-0.08,0.029-0.121l0.004-0.015   c0.02-0.082,0.039-0.166,0.059-0.248l0.003-0.012c0.009-0.038,0.02-0.084,0.029-0.122l0.003-0.014   c0.02-0.082,0.038-0.162,0.057-0.245l0.005-0.019l0.028-0.121l0.002-0.01c0.009-0.038,0.018-0.078,0.027-0.117l0.003-0.012   c0.009-0.041,0.018-0.079,0.027-0.121l0.004-0.017l0.028-0.123l0.001-0.003l0.028-0.125l0.002-0.007   c0.009-0.041,0.019-0.082,0.028-0.124l0.004-0.015c0.018-0.083,0.036-0.164,0.055-0.247l0.004-0.016l0.027-0.122l0.003-0.012   c0.018-0.083,0.036-0.167,0.054-0.25l0.003-0.014l0.026-0.123l0.002-0.01c0.009-0.042,0.018-0.083,0.027-0.125l0.001-0.002   l0.026-0.124l0.003-0.016c0.009-0.042,0.018-0.083,0.026-0.124l0.001-0.003l0.026-0.121l0.003-0.014l0.025-0.12l0.004-0.018   l0.052-0.253l0.002-0.008l0.026-0.127l0.002-0.009l0.052-0.255l0.002-0.012l0.025-0.126l0.002-0.008l0.025-0.124l0.001-0.006   c0.008-0.042,0.017-0.083,0.025-0.124l0.003-0.015c0.008-0.042,0.016-0.082,0.024-0.124l0.002-0.009l0.024-0.124l0.001-0.005   l0.024-0.123l0.004-0.02c0.016-0.084,0.032-0.166,0.048-0.25l0.002-0.013l0.023-0.122l0.003-0.017   c0.016-0.084,0.032-0.167,0.047-0.25l0.003-0.013l0.023-0.123l0.003-0.015c0.016-0.084,0.03-0.165,0.046-0.249l0.004-0.02   c0.008-0.042,0.015-0.08,0.022-0.122l0.002-0.009c0.007-0.039,0.014-0.08,0.021-0.119l0.002-0.013   c0.007-0.042,0.014-0.081,0.022-0.123l0.003-0.016l0.022-0.124l0.002-0.011l0.02-0.115l0.003-0.018   c0.007-0.039,0.014-0.08,0.021-0.119l0.004-0.02c0.007-0.042,0.014-0.081,0.021-0.123v-0.001l0.021-0.121l0.004-0.022l0.02-0.118   l0.004-0.022c0.007-0.037,0.014-0.08,0.02-0.116l0.001-0.007c0.007-0.039,0.014-0.081,0.021-0.121l0.004-0.023l0.019-0.116   l0.004-0.024l0.019-0.115l0.001-0.006l0.02-0.121l0.004-0.024c0.007-0.042,0.013-0.078,0.02-0.12l0.002-0.011l0.019-0.115   l0.003-0.019l0.019-0.119l0.004-0.022l0.039-0.247l0.003-0.019c0.007-0.039,0.013-0.08,0.019-0.119l0.004-0.022l0.038-0.249   l0.003-0.016l0.019-0.125l0.001-0.009l0.02-0.127l0-0.003c0.007-0.042,0.013-0.083,0.019-0.125l0.003-0.019l0.018-0.123   l0.002-0.015l0.017-0.114l0.003-0.017l0.018-0.119l0.004-0.026l0.018-0.12l0.001-0.008c0.006-0.037,0.012-0.08,0.017-0.117   l0.003-0.02l0.017-0.12l0.003-0.022l0.035-0.247l0.003-0.021l0.017-0.119l0.003-0.023l0.016-0.115l0.001-0.009   c0.005-0.04,0.011-0.08,0.016-0.119l0.004-0.027c0.005-0.04,0.01-0.078,0.016-0.118l0.003-0.019l0.015-0.111l0.002-0.018   c0.006-0.04,0.01-0.078,0.016-0.118l0.004-0.026l0.016-0.12l0.002-0.013l0.015-0.115l0.002-0.018l0.016-0.121l0.003-0.022   l0.016-0.124l0-0.004c0.005-0.04,0.01-0.077,0.015-0.116l0.004-0.029l0.015-0.117l0.003-0.022l0.014-0.116l0.001-0.009   c0.005-0.043,0.01-0.08,0.015-0.123l0.003-0.021l0.015-0.121l0.003-0.021c0.004-0.037,0.009-0.078,0.014-0.115l0.001-0.011   l0.014-0.122l0.003-0.024l0.014-0.121l0.002-0.015l0.013-0.115l0.002-0.017l0.014-0.124l0.002-0.018   c0.005-0.043,0.01-0.084,0.014-0.127l0-0.001c0.005-0.043,0.009-0.083,0.014-0.126l0.002-0.017l0.014-0.123l0.002-0.02   c0.009-0.086,0.018-0.165,0.027-0.251l0.002-0.021l0.013-0.122l0.002-0.018l0.013-0.119l0.001-0.01l0.013-0.125l0.002-0.018   c0.005-0.043,0.009-0.083,0.013-0.126l0.001-0.009c0.004-0.04,0.008-0.085,0.013-0.125l0.001-0.009   c0.005-0.043,0.008-0.08,0.012-0.123l0.002-0.025c0.004-0.04,0.008-0.083,0.012-0.123l0-0.006l0.012-0.122l0.001-0.018l0.012-0.123   l0.002-0.021c0.004-0.043,0.008-0.081,0.012-0.124l0.001-0.005c0.004-0.04,0.007-0.08,0.011-0.12l0.002-0.024   c0.004-0.04,0.007-0.08,0.011-0.12l0.002-0.023l0.01-0.114l0.001-0.013l0.011-0.121l0.002-0.026l0.011-0.12l0.002-0.019   c0.003-0.04,0.006-0.073,0.01-0.113l0.001-0.018l0.01-0.12l0.002-0.028c0.003-0.038,0.007-0.081,0.01-0.119l0.002-0.019   c0.003-0.035,0.007-0.076,0.009-0.111l0.002-0.021l0.01-0.12l0.002-0.026c0.003-0.04,0.007-0.083,0.01-0.124l0-0.001   c0.003-0.04,0.007-0.083,0.009-0.123l0.002-0.024l0.009-0.121l0.002-0.02l0.009-0.125v-0.002c0.003-0.04,0.007-0.084,0.009-0.125   l0.002-0.025l0.009-0.12l0.002-0.023l0.008-0.111l0.001-0.017l0.008-0.121l0.002-0.026l0.008-0.122l0.001-0.015l0.008-0.114   l0.002-0.022c0.003-0.041,0.005-0.081,0.008-0.122l0.001-0.023c0.003-0.043,0.006-0.081,0.008-0.125l0.001-0.006l0.007-0.121   l0.002-0.022l0.007-0.12l0.002-0.027l0.007-0.117l0.001-0.008c0.002-0.041,0.005-0.083,0.007-0.123l0.001-0.026   c0.003-0.041,0.005-0.081,0.007-0.121l0.001-0.019l0.007-0.12l0.001-0.009c0.002-0.044,0.005-0.082,0.007-0.126l0.001-0.022   l0.007-0.124l0.001-0.018c0.002-0.041,0.004-0.075,0.006-0.116l0.001-0.017l0.007-0.121l0.001-0.028l0.007-0.124v-0.002   c0.002-0.044,0.004-0.082,0.006-0.126l0.001-0.019l0.006-0.124l0.001-0.021c0.004-0.087,0.008-0.168,0.012-0.255l0.001-0.021   c0.002-0.041,0.004-0.083,0.006-0.124l0.001-0.021l0.005-0.117l0.001-0.012l0.005-0.12l0.001-0.031l0.005-0.119l0.001-0.022   l0.004-0.111l0.001-0.021l0.005-0.123l0.001-0.023l0.005-0.124l0.001-0.016l0.004-0.115l0.001-0.02   c0.002-0.041,0.003-0.081,0.004-0.122l0.001-0.028l0.004-0.123v-0.007l0.004-0.119l0.001-0.026l0.004-0.12l0.001-0.026l0.004-0.119   v-0.007c0.001-0.041,0.003-0.084,0.004-0.125l0.001-0.026c0.001-0.041,0.002-0.081,0.003-0.122l0.001-0.019l0.003-0.122l0-0.009   l0.003-0.126l0.001-0.025l0.003-0.124l0-0.014l0.002-0.115l0.001-0.023l0.002-0.122l0.001-0.025   c0.001-0.041,0.001-0.084,0.002-0.125v-0.01l0.002-0.118l0-0.025l0.002-0.12l0-0.029l0.002-0.119v-0.005   c0.001-0.041,0.001-0.085,0.002-0.126l0-0.024l0.002-0.123l0-0.022c0-0.038,0.001-0.077,0.001-0.115v-0.016   c0.001-0.044,0.001-0.08,0.001-0.124l0-0.025l0.001-0.125v-0.014l0.001-0.121v-0.015c0-0.041,0.001-0.082,0.001-0.123l0-0.028   l0-0.122l0-0.015c0-0.038,0-0.076,0-0.114v-0.025c0-0.041,0-0.08,0-0.121v-0.152C362.669,90.423,314.913,42.667,256.002,42.667   C256.002,42.667,256.002,42.667,256.002,42.667L256.002,42.667z" fill="#f4f1fa" data-original="#f4f1fa"/>
</g>
<path xmlns="http://www.w3.org/2000/svg" style="" d="M394.668,149.333c-41.237,0-74.667,33.429-74.667,74.667v0.145l0,0.078v0.04l0,0.076l0,0.035l0,0.086  l0,0.027l0.001,0.112l0,0.019l0.001,0.093l0,0.035l0.001,0.077l0,0.04l0.001,0.074l0,0.039l0.001,0.093l0,0.018l0.002,0.112l0,0.028  l0.002,0.083l0.001,0.039l0.001,0.074l0.001,0.04l0.002,0.077l0.001,0.034l0.005,0.223l0.001,0.033  c0.001,0.027,0.001,0.049,0.002,0.077l0.001,0.041l0.002,0.073l0.001,0.039l0.002,0.079l0.001,0.032  c0.001,0.037,0.002,0.073,0.003,0.11l0.001,0.022l0.003,0.089l0.001,0.037l0.003,0.075l0.001,0.04l0.003,0.074l0.001,0.038  l0.003,0.096l0.001,0.013l0.004,0.111l0.001,0.033l0.003,0.078l0.002,0.04l0.003,0.072l0.002,0.04l0.003,0.078l0.001,0.034  l0.005,0.11v0.004l0.005,0.107l0.002,0.034l0.004,0.077l0.002,0.04l0.003,0.071l0.002,0.041l0.004,0.076l0.002,0.035  c0.002,0.037,0.004,0.072,0.006,0.109l0.001,0.021l0.005,0.088l0.002,0.041l0.004,0.07l0.003,0.044l0.004,0.07l0.002,0.04  l0.005,0.088l0.001,0.022l0.007,0.109l0.002,0.033l0.005,0.077l0.002,0.039l0.005,0.072l0.003,0.042l0.005,0.074l0.002,0.034  l0.007,0.109l0.001,0.011l0.007,0.099l0.003,0.037l0.005,0.072l0.003,0.044l0.005,0.069l0.003,0.041l0.006,0.078l0.002,0.031  l0.008,0.108l0.002,0.03l0.006,0.079l0.003,0.043l0.005,0.067l0.003,0.043l0.006,0.071l0.003,0.039l0.007,0.091l0.001,0.018  l0.009,0.11l0.002,0.029l0.007,0.081l0.003,0.037l0.006,0.072l0.004,0.041l0.006,0.073l0.003,0.038l0.009,0.103l0.002,0.022  l0.008,0.091l0.004,0.039l0.007,0.071l0.004,0.042l0.007,0.071l0.004,0.039l0.007,0.076l0.003,0.034l0.01,0.105l0.003,0.035  l0.007,0.073l0.005,0.045l0.007,0.065l0.005,0.046l0.006,0.063l0.005,0.047l0.008,0.077l0.003,0.03l0.011,0.106l0.004,0.037  l0.007,0.07l0.005,0.046l0.007,0.063l0.005,0.047l0.007,0.068l0.004,0.039l0.011,0.096l0.004,0.036l0.009,0.081l0.005,0.042  l0.007,0.066l0.005,0.045l0.008,0.066l0.005,0.043l0.008,0.072l0.004,0.036l0.012,0.106l0.004,0.029l0.009,0.078l0.005,0.043  l0.008,0.065l0.005,0.044l0.008,0.069l0.005,0.04l0.012,0.092l0.002,0.015c0.005,0.037,0.009,0.07,0.014,0.106l0.005,0.039  l0.009,0.069l0.006,0.044l0.008,0.065l0.006,0.043l0.009,0.07l0.005,0.038l0.013,0.101l0.004,0.029l0.011,0.082l0.006,0.041  l0.009,0.068l0.006,0.043l0.009,0.065l0.006,0.044l0.01,0.069l0.005,0.039c0.005,0.034,0.01,0.07,0.015,0.104l0.005,0.033  l0.01,0.074l0.006,0.042l0.01,0.068l0.006,0.041l0.01,0.07l0.006,0.038l0.013,0.086l0.003,0.022l0.015,0.105l0.006,0.038l0.01,0.069  l0.007,0.044l0.009,0.063l0.007,0.047l0.01,0.063l0.007,0.043l0.014,0.087l0.007,0.045l0.012,0.079l0.006,0.037l0.011,0.069  l0.007,0.043l0.011,0.066l0.007,0.041l0.012,0.076l0.005,0.03l0.017,0.105l0.005,0.029l0.013,0.078l0.007,0.039l0.012,0.071  l0.006,0.036l0.013,0.076l0.006,0.033l0.016,0.091l0.003,0.015l0.018,0.105l0.006,0.034l0.013,0.074l0.007,0.039l0.012,0.067  l0.008,0.044l0.011,0.065l0.007,0.042l0.018,0.1l0.005,0.03l0.014,0.078l0.008,0.042l0.011,0.063l0.008,0.047l0.011,0.06  l0.008,0.045l0.012,0.065l0.008,0.042c0.006,0.033,0.012,0.066,0.019,0.1l0.007,0.039l0.012,0.066l0.008,0.044l0.012,0.064  l0.008,0.044l0.012,0.062l0.008,0.045l0.014,0.071l0.008,0.043l0.018,0.091l0.008,0.044l0.012,0.06l0.009,0.048l0.011,0.058  l0.009,0.048l0.012,0.062l0.008,0.042l0.017,0.084l0.011,0.056l0.013,0.065l0.01,0.05l0.011,0.053l0.011,0.052l0.011,0.056  l0.01,0.049l0.013,0.062l0.009,0.042l0.021,0.099l0.009,0.042l0.013,0.063l0.01,0.048l0.012,0.055l0.011,0.05l0.012,0.055  l0.011,0.05l0.015,0.067l0.01,0.045c0.006,0.028,0.013,0.059,0.019,0.087l0.011,0.049l0.012,0.056l0.011,0.048l0.013,0.057  l0.01,0.047l0.014,0.063l0.009,0.042l0.02,0.09l0.01,0.045l0.015,0.068l0.01,0.045l0.014,0.06l0.011,0.048l0.013,0.056l0.011,0.047  l0.014,0.061l0.01,0.044l0.023,0.099l0.008,0.036l0.016,0.066l0.011,0.046l0.014,0.059l0.01,0.045l0.014,0.06l0.01,0.044  l0.016,0.068l0.014,0.059l0.018,0.075l0.011,0.046l0.014,0.058l0.011,0.046l0.014,0.057l0.012,0.049l0.014,0.056l0.011,0.046  l0.023,0.096l0.009,0.035l0.018,0.071l0.011,0.043l0.015,0.059l0.012,0.047l0.014,0.057l0.012,0.046l0.017,0.067l0.009,0.035  l0.025,0.098l0.011,0.045l0.015,0.057l0.013,0.051l0.014,0.054l0.012,0.048l0.015,0.057l0.012,0.046l0.018,0.067l0.014,0.055  l0.02,0.076l0.012,0.045l0.016,0.059l0.012,0.044l0.015,0.058l0.012,0.046l0.016,0.059l0.012,0.044l0.024,0.09l0.012,0.044  l0.017,0.064l0.012,0.045l0.016,0.057l0.013,0.048l0.016,0.057l0.012,0.044l0.018,0.063l0.011,0.041l0.026,0.095l0.013,0.046  l0.016,0.055l0.014,0.049l0.015,0.053l0.014,0.05l0.014,0.05l0.015,0.051l0.016,0.057l0.021,0.071l0.019,0.067l0.013,0.045  l0.016,0.057l0.013,0.045l0.016,0.056l0.014,0.049l0.016,0.055l0.013,0.045l0.026,0.088l0.014,0.046l0.018,0.062l0.014,0.047  l0.016,0.053l0.014,0.049l0.016,0.054l0.014,0.048l0.016,0.054l0.014,0.047l0.028,0.093l0.014,0.047l0.016,0.053l0.016,0.052  l0.015,0.048l0.016,0.052l0.015,0.049l0.016,0.052l0.016,0.052l0.028,0.091l0.014,0.047l0.018,0.056l0.014,0.045l0.017,0.054  l0.015,0.047l0.016,0.052l0.016,0.051l0.015,0.049l0.022,0.07l0.022,0.069l0.017,0.053l0.015,0.048l0.017,0.053l0.016,0.049  l0.016,0.05l0.016,0.05l0.016,0.049l0.025,0.077l0.021,0.066l0.015,0.047l0.017,0.052l0.016,0.05l0.017,0.051l0.016,0.048  l0.017,0.052l0.016,0.048l0.02,0.06l0.024,0.071l0.021,0.061l0.017,0.05l0.017,0.049l0.017,0.051l0.017,0.049l0.017,0.051  l0.017,0.049l0.016,0.048l0.026,0.077l0.02,0.057l0.021,0.06l0.016,0.046l0.017,0.05l0.018,0.051l0.017,0.049l0.017,0.049  l0.019,0.054l0.015,0.044l0.032,0.092l0.016,0.046l0.018,0.052l0.018,0.051l0.017,0.049l0.017,0.048l0.019,0.053l0.017,0.048  l0.019,0.053l0.032,0.088l0.017,0.047l0.02,0.054l0.016,0.044l0.02,0.054l0.016,0.043l0.02,0.054l0.016,0.045l0.02,0.053  l0.014,0.039c0.013,0.035,0.025,0.07,0.038,0.105l0.015,0.041l0.021,0.055l0.016,0.042l0.02,0.055l0.016,0.043l0.02,0.054  l0.016,0.043c0.016,0.042,0.03,0.08,0.046,0.123l0.007,0.02l0.022,0.058l0.015,0.039l0.021,0.054l0.017,0.045l0.02,0.053  l0.015,0.041l0.022,0.057l0.013,0.033l0.042,0.11l0.015,0.04l0.021,0.054l0.016,0.043l0.021,0.054l0.017,0.044l0.021,0.053  l0.018,0.047l0.019,0.048l0.021,0.053l0.036,0.093l0.015,0.039l0.023,0.057l0.015,0.038l0.023,0.058l0.015,0.038l0.023,0.057  l0.014,0.036c0.016,0.042,0.033,0.083,0.049,0.125l0.008,0.021l0.022,0.056l0.017,0.041l0.023,0.057l0.015,0.038l0.023,0.057  l0.015,0.037l0.024,0.06l0.009,0.022l0.054,0.132l0.01,0.024l0.024,0.059l0.016,0.039l0.022,0.054l0.017,0.041l0.022,0.054  l0.017,0.042l0.022,0.054l0.007,0.017l0.054,0.129l0.014,0.034l0.024,0.057l0.016,0.037l0.024,0.058l0.015,0.035l0.025,0.061  l0.01,0.024l0.063,0.15l0.002,0.003l0.026,0.061l0.014,0.034l0.025,0.058l0.016,0.038l0.024,0.057l0.015,0.036l0.025,0.058  l0.013,0.03c0.017,0.039,0.034,0.078,0.051,0.118l0.013,0.03l0.025,0.058l0.016,0.038l0.024,0.054l0.018,0.04l0.024,0.056  l0.015,0.035l0.089,0.201l0.016,0.036l0.025,0.056l0.016,0.036l0.026,0.058l0.016,0.035l0.026,0.058l0.014,0.031  c0.031,0.069,0.063,0.14,0.094,0.209l0.013,0.028l0.028,0.062l0.014,0.032l0.027,0.059l0.016,0.035l0.027,0.06l0.01,0.021  l0.059,0.129l0.011,0.024l0.027,0.058l0.017,0.038l0.025,0.055l0.017,0.036l0.027,0.058l0.015,0.033  c0.032,0.069,0.064,0.137,0.096,0.206l0.013,0.028l0.027,0.058l0.017,0.035l0.027,0.057l0.017,0.036l0.026,0.055l0.017,0.035  c0.02,0.042,0.04,0.085,0.06,0.127l0.007,0.014l0.028,0.059l0.016,0.033l0.027,0.056l0.018,0.038l0.026,0.055l0.016,0.033  l0.03,0.062l0.003,0.005l0.068,0.141l0.013,0.026l0.028,0.058l0.016,0.033l0.028,0.058l0.016,0.033l0.029,0.059l0.014,0.029  c0.034,0.07,0.067,0.137,0.102,0.207l0.013,0.027l0.03,0.06l0.015,0.03l0.03,0.059l0.017,0.033l0.029,0.058l0.014,0.027l0.102,0.204  l0.016,0.032l0.03,0.059l0.016,0.031l0.029,0.058l0.017,0.033l0.03,0.059l0.01,0.019c0.022,0.043,0.044,0.086,0.066,0.13  l0.011,0.021l0.031,0.061l0.015,0.03l0.03,0.059l0.016,0.031l0.03,0.059l0.016,0.031l0.104,0.201l0.015,0.028l0.029,0.055  l0.019,0.036l0.03,0.057l0.016,0.03l0.032,0.06l0.01,0.02c0.025,0.048,0.051,0.096,0.076,0.144l0.002,0.004l0.032,0.06l0.016,0.03  l0.03,0.057l0.019,0.034l0.029,0.055l0.017,0.032l0.031,0.058l0.011,0.02c0.022,0.041,0.046,0.086,0.068,0.126l0.011,0.021  l0.033,0.06l0.016,0.029l0.032,0.059l0.015,0.028l0.034,0.063l0.01,0.018c0.038,0.07,0.076,0.139,0.114,0.209l0.015,0.027  l0.032,0.058l0.016,0.028l0.033,0.06l0.015,0.027l0.034,0.061l0.01,0.019c0.039,0.071,0.077,0.139,0.117,0.21l0.013,0.024  l0.034,0.061l0.015,0.027l0.033,0.058l0.017,0.03l0.034,0.06l0.001,0.001c0.028,0.051,0.058,0.102,0.086,0.152l0.006,0.01  l0.035,0.061l0.017,0.029l0.033,0.058l0.016,0.028l0.034,0.06l0.013,0.022c0.04,0.07,0.08,0.14,0.12,0.21l0.01,0.018l0.035,0.062  l0.015,0.026l0.035,0.061l0.013,0.023l0.036,0.062l0.009,0.016c0.041,0.07,0.082,0.141,0.123,0.211l0.013,0.021l0.035,0.06  l0.017,0.029l0.035,0.059l0.013,0.021c0.042,0.072,0.085,0.145,0.128,0.216l0.006,0.01l0.039,0.065l0.012,0.02l0.038,0.064  l0.012,0.021l0.039,0.065l0.007,0.012c0.044,0.073,0.087,0.146,0.132,0.218l0.008,0.013l0.04,0.066l0.011,0.018l0.04,0.066  l0.011,0.017c0.059,0.097,0.118,0.193,0.177,0.29l0.013,0.022l0.038,0.061l0.014,0.023l0.038,0.062l0.012,0.02  c0.06,0.097,0.119,0.192,0.18,0.289l0.012,0.019l0.039,0.063l0.014,0.022l0.038,0.061l0.014,0.022l0.13,0.206l0.01,0.015  l0.038,0.059l0.018,0.028l0.036,0.057l0.016,0.025l0.038,0.06l0.008,0.012c0.031,0.049,0.061,0.096,0.093,0.144l0.001,0.001  l0.04,0.062l0.014,0.022l0.038,0.059l0.016,0.025l0.038,0.059l0.013,0.02c0.045,0.07,0.091,0.14,0.136,0.209l0.007,0.01l0.041,0.063  l0.014,0.021l0.039,0.06l0.015,0.023l0.041,0.063l0.005,0.007c0.047,0.071,0.094,0.142,0.141,0.213l0.011,0.017l0.041,0.062  l0.013,0.019l0.042,0.063l0.012,0.018l0.044,0.065l0,0.001l0.148,0.221l0.008,0.012l0.044,0.066l0.01,0.015l0.044,0.065l0.009,0.013  c0.064,0.094,0.13,0.19,0.194,0.284l0.014,0.02l0.042,0.061l0.013,0.019l0.044,0.063l0.007,0.01c0.048,0.07,0.097,0.141,0.146,0.211  l0.008,0.012l0.042,0.061l0.015,0.022l0.041,0.059l0.016,0.022l0.041,0.059l0.011,0.015c0.046,0.066,0.094,0.135,0.141,0.201  l0.013,0.018l0.042,0.059l0.016,0.023l0.042,0.06l0.01,0.014c0.049,0.069,0.098,0.138,0.147,0.207l0.007,0.01l0.044,0.062  l0.013,0.018l0.043,0.06l0.014,0.019l0.045,0.063l0.004,0.006c0.049,0.069,0.101,0.139,0.151,0.208l0.011,0.015l0.043,0.059  l0.015,0.021l0.042,0.058l0.017,0.023l0.043,0.059l0.005,0.007l0.148,0.202l0.016,0.021l0.043,0.058l0.015,0.02l0.044,0.06  l0.011,0.016c0.053,0.071,0.103,0.138,0.156,0.209l0.002,0.002l0.046,0.062l0.015,0.02l0.043,0.057l0.017,0.022l0.043,0.057  l0.014,0.018c0.048,0.065,0.097,0.129,0.146,0.193l0.013,0.018l0.041,0.054l0.021,0.028l0.04,0.052l0.02,0.026l0.042,0.055  l0.008,0.01c0.051,0.067,0.102,0.133,0.154,0.2l0.012,0.015l0.046,0.059l0.016,0.02l0.045,0.058l0.013,0.017  c0.052,0.067,0.103,0.133,0.155,0.199l0.006,0.008l0.047,0.06l0.015,0.019l0.044,0.057l0.017,0.021l0.046,0.059l0.006,0.007  c0.051,0.065,0.102,0.13,0.154,0.195l0.017,0.022l0.044,0.056l0.016,0.02l0.045,0.057l0.016,0.02l0.046,0.058l0.006,0.007  c0.053,0.066,0.105,0.131,0.158,0.197l0.014,0.018l0.047,0.058l0.015,0.019l0.046,0.056l0.016,0.019  c0.053,0.066,0.107,0.133,0.161,0.198l0.003,0.003l0.048,0.059l0.016,0.02l0.046,0.056l0.014,0.017l0.049,0.059l0.007,0.009  c0.054,0.065,0.11,0.134,0.164,0.199l0.008,0.01l0.049,0.059l0.015,0.018l0.048,0.058l0.013,0.015l0.05,0.06l0.002,0.002  c0.057,0.068,0.111,0.132,0.167,0.2l0.012,0.015l0.047,0.056l0.018,0.021l0.047,0.056l0.01,0.012c0.054,0.065,0.11,0.13,0.164,0.194  l0.008,0.01l0.05,0.058l0.014,0.017l0.048,0.056l0.017,0.019l0.049,0.057l0.007,0.009c0.055,0.064,0.11,0.129,0.166,0.193  l0.011,0.013l0.051,0.059l0.012,0.013l0.052,0.06l0.011,0.012c0.074,0.086,0.15,0.172,0.225,0.258l0.015,0.018l0.049,0.055  l0.016,0.018l0.049,0.056l0.013,0.014c0.058,0.066,0.114,0.129,0.172,0.195l0.002,0.002l0.051,0.058l0.016,0.018l0.048,0.054  l0.018,0.02l0.048,0.053l0.015,0.017c0.055,0.062,0.109,0.122,0.164,0.183l0.01,0.012l0.05,0.056l0.016,0.018l0.051,0.057  l0.01,0.011c0.077,0.085,0.156,0.172,0.233,0.257l0.011,0.012l0.052,0.056l0.015,0.017l0.052,0.057l0.007,0.008l0.179,0.194  l0.004,0.005l0.053,0.057l0.015,0.016l0.05,0.054l0.017,0.018l0.052,0.056l0.002,0.003c0.058,0.062,0.119,0.128,0.177,0.189  l0.013,0.014l0.052,0.055l0.014,0.015l0.053,0.056l0.012,0.013c0.079,0.084,0.159,0.168,0.239,0.252l0.01,0.01l0.056,0.058  l0.011,0.011l0.055,0.058l0.01,0.01c0.06,0.062,0.12,0.125,0.18,0.188l0.005,0.005l0.052,0.054l0.019,0.019l0.051,0.053l0.014,0.015  l0.055,0.057l0.002,0.002c0.063,0.065,0.124,0.128,0.188,0.192l0.006,0.006l0.056,0.057l0.013,0.013l0.056,0.057l0.01,0.01  c0.081,0.082,0.164,0.167,0.246,0.249l0.01,0.01l0.055,0.056l0.014,0.014l0.056,0.057l0.004,0.004  c0.063,0.063,0.125,0.125,0.187,0.187l0.007,0.007l0.055,0.055l0.015,0.015l0.054,0.054l0.014,0.014  c0.082,0.081,0.164,0.162,0.246,0.242l0.011,0.011l0.056,0.054l0.014,0.014l0.055,0.054l0.015,0.014  c0.081,0.079,0.162,0.158,0.243,0.237l0.016,0.016l0.053,0.052l0.017,0.016l0.053,0.051l0.015,0.015  c0.062,0.06,0.124,0.119,0.187,0.179l0.002,0.002l0.058,0.055l0.015,0.014l0.055,0.053l0.014,0.014l0.057,0.054l0.007,0.006  c0.063,0.059,0.122,0.116,0.186,0.175l0.014,0.013l0.052,0.049l0.021,0.02l0.053,0.049l0.015,0.014  c0.084,0.079,0.167,0.156,0.251,0.234l0.012,0.011l0.056,0.052l0.017,0.016l0.056,0.052l0.01,0.01  c0.063,0.059,0.126,0.116,0.19,0.174l0.007,0.007l0.058,0.053l0.014,0.013l0.057,0.052l0.013,0.012  c0.085,0.078,0.17,0.154,0.256,0.231l0.014,0.013l0.057,0.051l0.014,0.013l0.059,0.053l0.009,0.008  c0.087,0.078,0.173,0.154,0.26,0.232l0.014,0.012l0.058,0.051l0.016,0.014l0.056,0.05l0.016,0.014  c0.065,0.057,0.129,0.113,0.193,0.17l0.003,0.002l0.06,0.052l0.016,0.014l0.058,0.05l0.013,0.011  c0.087,0.076,0.177,0.154,0.264,0.229l0.009,0.008l0.059,0.051l0.015,0.013l0.06,0.052l0.009,0.008  c0.067,0.058,0.134,0.115,0.202,0.173l0.002,0.002l0.06,0.051l0.016,0.013l0.055,0.047l0.022,0.019l0.054,0.046l0.014,0.012  c0.065,0.055,0.128,0.108,0.192,0.162l0.011,0.01l0.059,0.049l0.017,0.014l0.058,0.049l0.015,0.013  c0.089,0.074,0.176,0.147,0.265,0.22l0.013,0.01l0.06,0.05l0.015,0.012l0.059,0.049l0.016,0.013  c0.065,0.054,0.131,0.108,0.196,0.161l0.007,0.006l0.055,0.045l0.023,0.019l0.054,0.044l0.022,0.018l0.055,0.045l0.017,0.014  c0.064,0.052,0.128,0.104,0.192,0.156l0.012,0.01l0.058,0.047l0.021,0.016l0.056,0.045l0.021,0.017l0.057,0.046l0.011,0.009  c0.066,0.053,0.131,0.104,0.197,0.157l0.015,0.012l0.056,0.045l0.023,0.019l0.055,0.044l0.019,0.015  c0.065,0.051,0.129,0.102,0.194,0.153l0.012,0.009l0.056,0.044l0.023,0.018l0.054,0.042l0.025,0.02l0.054,0.042l0.021,0.016  c0.062,0.048,0.126,0.098,0.188,0.146l0.018,0.014l0.056,0.043l0.024,0.018l0.054,0.042l0.023,0.018l0.059,0.045l0.003,0.002  c0.067,0.052,0.137,0.105,0.204,0.156l0.02,0.015l0.057,0.043l0.021,0.016l0.058,0.044l0.019,0.014  c0.068,0.051,0.137,0.103,0.205,0.154l0.004,0.003l0.062,0.046l0.018,0.013l0.061,0.046l0.017,0.012l0.062,0.046l0.013,0.01  c0.068,0.051,0.136,0.101,0.204,0.152l0.01,0.008l0.059,0.044l0.023,0.017l0.057,0.042l0.02,0.014l0.061,0.045l0.004,0.003  c0.07,0.051,0.141,0.103,0.211,0.154l0.013,0.01l0.06,0.044l0.021,0.016l0.059,0.043l0.018,0.013c0.069,0.05,0.139,0.1,0.208,0.15  l0.005,0.003l0.064,0.046l0.016,0.012l0.061,0.043l0.02,0.014l0.063,0.045l0.006,0.004c0.07,0.05,0.14,0.099,0.21,0.15l0.015,0.01  l0.062,0.044l0.018,0.013l0.062,0.043l0.017,0.012c0.094,0.066,0.186,0.13,0.28,0.196l0.017,0.012l0.061,0.042l0.021,0.014  l0.06,0.042l0.021,0.014c0.071,0.049,0.141,0.097,0.212,0.146l0.002,0.001l0.064,0.044l0.018,0.013l0.063,0.043l0.018,0.012  l0.063,0.043l0.01,0.007c0.073,0.05,0.148,0.101,0.221,0.15l0,0l0.07,0.047l0.013,0.009l0.068,0.046l0.01,0.007  c0.097,0.066,0.195,0.131,0.293,0.196l0.012,0.008l0.063,0.042l0.021,0.014l0.063,0.042l0.011,0.007  c0.074,0.049,0.148,0.098,0.223,0.147l0.001,0.001l0.067,0.044l0.017,0.011l0.063,0.041l0.02,0.013l0.063,0.041l0.011,0.007  c0.071,0.046,0.142,0.092,0.213,0.138l0.014,0.009l0.065,0.042l0.017,0.011l0.065,0.042l0.016,0.01  c0.096,0.062,0.191,0.122,0.287,0.183l0.021,0.013l0.062,0.039l0.02,0.013l0.064,0.041l0.015,0.01  c0.098,0.062,0.194,0.122,0.293,0.184l0.015,0.01l0.068,0.042l0.013,0.008l0.069,0.043l0.007,0.004  c0.077,0.048,0.153,0.095,0.23,0.142l0.002,0.001l0.069,0.043l0.017,0.01l0.067,0.041l0.011,0.007  c0.1,0.062,0.201,0.123,0.301,0.184l0.011,0.007l0.067,0.041l0.017,0.01l0.069,0.042l0.007,0.004  c0.078,0.047,0.155,0.093,0.233,0.14l0,0l0.069,0.041l0.017,0.01l0.065,0.039l0.021,0.012l0.067,0.04l0.005,0.003  c0.075,0.044,0.15,0.089,0.225,0.133l0.015,0.009l0.066,0.039l0.019,0.011l0.066,0.039l0.017,0.01  c0.1,0.058,0.199,0.116,0.299,0.174l0.016,0.009l0.069,0.04l0.014,0.008l0.07,0.04l0.01,0.006c0.101,0.058,0.203,0.116,0.304,0.174  l0.017,0.01l0.068,0.039l0.015,0.008l0.072,0.041l0,0c0.081,0.046,0.162,0.091,0.243,0.136l0,0l0.073,0.041l0.014,0.008l0.07,0.039  l0.012,0.007c0.103,0.057,0.207,0.115,0.311,0.172l0.009,0.005l0.07,0.039l0.017,0.009l0.072,0.039l0.004,0.002  c0.105,0.058,0.212,0.115,0.317,0.173l0.01,0.006l0.074,0.04l0.012,0.006c0.106,0.057,0.209,0.112,0.314,0.168l0.008,0.004  l0.072,0.038l0.016,0.008l0.07,0.037l0.014,0.008c0.103,0.054,0.207,0.109,0.31,0.163l0.014,0.007l0.07,0.037l0.016,0.008  l0.073,0.038l0.007,0.004c0.107,0.055,0.211,0.109,0.318,0.164l0.011,0.006l0.075,0.038l0.01,0.005  c0.109,0.056,0.216,0.11,0.325,0.165l0.001,0.001l0.073,0.037l0.018,0.009l0.072,0.036l0.01,0.005  c0.107,0.054,0.215,0.108,0.323,0.161l0.005,0.003l0.076,0.037l0.013,0.007l0.076,0.037l0.004,0.002  c0.108,0.053,0.218,0.107,0.326,0.16l0.009,0.005l0.076,0.037l0.012,0.006c0.108,0.052,0.213,0.103,0.321,0.155l0.01,0.005  l0.073,0.035l0.016,0.007l0.073,0.035l0.011,0.005c0.109,0.052,0.215,0.102,0.325,0.153l0.008,0.004l0.077,0.036l0.009,0.004  l0.079,0.037l0.001,0c0.111,0.052,0.221,0.103,0.333,0.154l0.009,0.004l0.08,0.037l0.005,0.002c0.138,0.063,0.281,0.128,0.419,0.191  l0.005,0.002c0.169,0.076,0.337,0.151,0.506,0.226l0.007,0.003c0.169,0.075,0.34,0.15,0.51,0.223l0,0  c0.629,0.273,1.263,0.537,1.901,0.792l0.001,0c0.348,0.139,0.697,0.276,1.048,0.41l0,0c1.87,0.716,3.775,1.358,5.715,1.926  c0.139,0.041,0.278,0.08,0.417,0.117c0.081,0.025,0.162,0.049,0.243,0.072c0.399,0.113,0.804,0.223,1.206,0.329l0.025,0.007  l0.052,0.014c0.106,0.028,0.213,0.056,0.32,0.083l0.01,0.003c0.149,0.038,0.303,0.078,0.452,0.115  c11.246,2.754,22.613-4.06,25.484-15.277c2.932-11.431-3.882-23.093-15.28-26.152l-0.481-0.128c-0.067-0.018-0.133-0.035-0.2-0.052  c-0.092-0.028-0.186-0.057-0.279-0.084c-16.962-4.986-26.671-22.778-21.685-39.74c4.004-13.621,16.501-22.978,30.699-22.984  c5.425-0.026,10.764,1.348,15.502,3.99c0.086,0.048,0.171,0.094,0.257,0.14c0.06,0.036,0.12,0.072,0.18,0.107l0.433,0.254  c10.184,5.97,23.275,2.623,29.345-7.501c5.958-9.924,2.823-22.796-7.032-28.868c-0.136-0.083-0.27-0.163-0.407-0.245l-0.003-0.002  c-0.119-0.071-0.239-0.142-0.359-0.213l-0.052-0.031l-0.022-0.013l-0.091-0.053l-0.001-0.001c-0.065-0.038-0.126-0.074-0.191-0.112  l-0.008-0.004l-0.075-0.044c-0.071-0.041-0.142-0.082-0.213-0.123l-0.008-0.005c-0.136-0.079-0.267-0.154-0.404-0.231  c-0.076-0.043-0.153-0.085-0.229-0.126c-0.119-0.069-0.238-0.137-0.359-0.205l-0.075-0.042l-0.005-0.003l-0.089-0.049l-0.018-0.01  l-0.089-0.049l-0.003-0.002l-0.088-0.048l-0.014-0.008l-0.09-0.049l-0.009-0.005l-0.085-0.047l-0.011-0.006l-0.088-0.048  l-0.018-0.01c-0.06-0.033-0.121-0.066-0.182-0.098l-0.012-0.007c-0.062-0.034-0.126-0.068-0.188-0.101l-0.008-0.004  c-0.064-0.034-0.129-0.069-0.194-0.103l-0.003-0.002l-0.097-0.051l-0.006-0.003c-0.064-0.034-0.13-0.069-0.195-0.103l-0.004-0.002  c-0.067-0.035-0.13-0.068-0.197-0.103l-0.002-0.001c-0.167-0.087-0.333-0.173-0.501-0.259l-0.001,0  c-5.327-2.729-10.965-4.803-16.79-6.177l0,0c-0.113-0.027-0.225-0.053-0.338-0.079c-0.076-0.017-0.149-0.034-0.224-0.051  l-0.004-0.001c-0.073-0.017-0.147-0.033-0.22-0.05l-0.008-0.002c-0.073-0.016-0.148-0.033-0.221-0.049l-0.003-0.001l-0.112-0.025  l-0.001,0l-0.112-0.024l-0.002,0l-0.112-0.024l-0.003-0.001c-0.076-0.016-0.147-0.032-0.223-0.048l-0.005-0.001  c-0.073-0.016-0.147-0.031-0.22-0.046l-0.008-0.002l-0.109-0.023l-0.002,0l-0.107-0.022l-0.007-0.001l-0.106-0.022l-0.013-0.003  c-0.071-0.015-0.143-0.029-0.214-0.044l-0.012-0.002c-0.071-0.014-0.145-0.029-0.216-0.043l-0.009-0.002  c-0.074-0.015-0.148-0.029-0.222-0.044l-0.005-0.001l-0.11-0.021l-0.007-0.001c-0.071-0.014-0.149-0.029-0.22-0.042l-0.009-0.002  c-0.071-0.014-0.148-0.028-0.22-0.042l-0.008-0.001c-0.074-0.014-0.148-0.028-0.223-0.041l-0.005-0.001l-0.109-0.02l-0.01-0.002  l-0.107-0.019l-0.002,0l-0.108-0.019l-0.014-0.003c-0.072-0.013-0.143-0.025-0.215-0.038l-0.013-0.002l-0.109-0.019l0,0  l-0.107-0.018l-0.013-0.002l-0.107-0.018l-0.007-0.001l-0.107-0.018l-0.005-0.001l-0.109-0.018l-0.012-0.002  c-0.072-0.012-0.144-0.024-0.216-0.036l-0.014-0.002c-0.072-0.012-0.144-0.023-0.216-0.035l-0.013-0.002l-0.106-0.017l-0.013-0.002  l-0.101-0.016l-0.009-0.001l-0.106-0.017l-0.017-0.003c-0.072-0.011-0.14-0.022-0.212-0.033l-0.019-0.003  c-0.072-0.011-0.143-0.022-0.215-0.033l-0.013-0.002l-0.108-0.016l-0.006-0.001l-0.106-0.016l-0.008-0.001l-0.108-0.016  l-0.013-0.002l-0.106-0.015l-0.002,0l-0.107-0.015l-0.018-0.003c-0.073-0.01-0.142-0.02-0.214-0.03l-0.016-0.002l-0.107-0.015  l-0.008-0.001l-0.103-0.014l-0.012-0.002l-0.107-0.014l-0.013-0.002c-0.073-0.01-0.146-0.019-0.219-0.029l-0.014-0.002  c-0.073-0.009-0.144-0.019-0.216-0.028l-0.018-0.002l-0.108-0.014l-0.004,0l-0.105-0.013l-0.014-0.002l-0.107-0.013l-0.012-0.002  l-0.103-0.012l-0.008-0.001l-0.108-0.013l-0.014-0.002c-0.073-0.009-0.144-0.017-0.217-0.026l-0.017-0.002l-0.107-0.012  l-0.009-0.001l-0.101-0.011l-0.017-0.002l-0.105-0.012l-0.016-0.002l-0.102-0.011l-0.008-0.001l-0.107-0.012l-0.02-0.002  l-0.213-0.023l-0.021-0.002l-0.105-0.011l-0.008-0.001l-0.097-0.01l-0.023-0.002l-0.103-0.01l-0.018-0.002l-0.094-0.009  l-0.016-0.002l-0.106-0.01l-0.017-0.002l-0.103-0.01l-0.007-0.001l-0.106-0.01l-0.021-0.002l-0.106-0.01l-0.009-0.001l-0.098-0.009  l-0.023-0.002l-0.103-0.009l-0.02-0.002l-0.091-0.008l-0.02-0.002l-0.102-0.009l-0.025-0.002l-0.097-0.008l-0.009-0.001  l-0.105-0.009l-0.022-0.002l-0.214-0.017l-0.021-0.002l-0.105-0.008l-0.014-0.001l-0.095-0.007l-0.021-0.002l-0.104-0.008  l-0.02-0.001l-0.1-0.007l-0.009-0.001l-0.105-0.008l-0.023-0.002l-0.106-0.008l-0.002,0l-0.105-0.007l-0.021-0.001l-0.106-0.007  l-0.011-0.001l-0.101-0.007l-0.015-0.001l-0.105-0.007l-0.022-0.001l-0.096-0.006l-0.012-0.001l-0.106-0.007l-0.022-0.001  c-0.069-0.004-0.144-0.009-0.213-0.013l-0.023-0.001l-0.105-0.006l-0.014-0.001l-0.094-0.005l-0.023-0.001l-0.104-0.006l-0.02-0.001  l-0.092-0.005l-0.019-0.001l-0.103-0.005l-0.023-0.001l-0.102-0.005l-0.006,0l-0.106-0.005l-0.024-0.001l-0.105-0.005l-0.012-0.001  l-0.097-0.004l-0.022-0.001l-0.104-0.004l-0.021-0.001l-0.092-0.004l-0.02-0.001l-0.102-0.004l-0.027-0.001l-0.1-0.004l-0.005,0  l-0.106-0.004l-0.025-0.001l-0.106-0.004l-0.008,0l-0.102-0.003l-0.021-0.001l-0.106-0.003l-0.018,0l-0.093-0.003l-0.021-0.001  l-0.103-0.003l-0.027-0.001l-0.091-0.002l-0.017,0l-0.104-0.003l-0.025-0.001l-0.105-0.002l-0.01,0l-0.097-0.002l-0.026-0.001  l-0.103-0.002l-0.02,0l-0.092-0.002l-0.021,0l-0.105-0.002l-0.021,0l-0.101-0.002l-0.009,0l-0.106-0.001l-0.026,0l-0.106-0.001  l-0.006,0l-0.103-0.001l-0.023,0l-0.106-0.001l-0.014,0l-0.096-0.001l-0.022,0l-0.105-0.001l-0.021,0l-0.096,0h-0.016l-0.105,0  l-0.024,0L394.668,149.333z" fill="#d2c9eb" data-original="#d2c9eb" class=""/>
<g xmlns="http://www.w3.org/2000/svg">
	<path style="" d="M106.665,149.337h255.996c23.564,0,42.667,19.103,42.667,42.667v21.336   c0,23.564-19.103,42.667-42.667,42.667H106.665c-23.564,0-42.667-19.103-42.667-42.667v-21.336   C63.998,168.439,83.101,149.337,106.665,149.337z" fill="#002d62" data-original="#5329b4" class=""/>
	<path style="" d="M106.665,255.997h255.996c23.564,0,42.667,19.103,42.667,42.667V320   c0,23.564-19.103,42.667-42.667,42.667H106.665c-23.564,0-42.667-19.103-42.667-42.667v-21.336   C63.998,275.099,83.101,255.997,106.665,255.997z" fill="#002d62" data-original="#5329b4" class=""/>
	<path style="" d="M106.665,362.667h255.996c23.564,0,42.667,19.103,42.667,42.667v21.336   c0,23.564-19.103,42.667-42.667,42.667H106.665c-23.564,0-42.667-19.103-42.667-42.667v-21.336   C63.998,381.769,83.101,362.667,106.665,362.667z" fill="#002d62" data-original="#5329b4" class=""/>
</g>
<g xmlns="http://www.w3.org/2000/svg">
	<path style="" d="M64.002,426.667h341.333l0,0c0,23.564-19.102,42.667-42.667,42.667c0,0,0,0,0,0h-256   C83.104,469.334,64.002,450.231,64.002,426.667C64.002,426.667,64.002,426.667,64.002,426.667L64.002,426.667z" fill="#002d62" data-original="#4b1eb0" class=""/>
	<path style="" d="M64.002,213.333h341.333l0,0c0,23.564-19.102,42.667-42.667,42.667c0,0,0,0,0,0h-256   C83.104,256,64.002,236.898,64.002,213.333C64.002,213.334,64.002,213.334,64.002,213.333L64.002,213.333L64.002,213.333z" fill="#002d62" data-original="#4b1eb0" class=""/>
	<path style="" d="M64.002,320h341.333l0,0c0,23.564-19.102,42.667-42.667,42.667c0,0,0,0,0,0h-256   C83.104,362.667,64.002,343.564,64.002,320L64.002,320L64.002,320L64.002,320z" fill="#002d62" data-original="#4b1eb0" class=""/>
</g>
<g xmlns="http://www.w3.org/2000/svg">
	<circle style="" cx="117.338" cy="202.667" r="10.667" fill="#f2f2f2" data-original="#f2f2f2"/>
	<path style="" d="M288.005,191.997h63.996c5.891,0,10.667,4.776,10.667,10.667l0,0   c0,5.891-4.776,10.667-10.667,10.667h-63.996c-5.891,0-10.667-4.776-10.667-10.667l0,0   C277.338,196.772,282.114,191.997,288.005,191.997z" fill="#f2f2f2" data-original="#f2f2f2"/>
	<circle style="" cx="117.338" cy="309.337" r="10.667" fill="#f2f2f2" data-original="#f2f2f2"/>
	<path style="" d="M288.005,298.667h63.996c5.891,0,10.667,4.776,10.667,10.667l0,0   c0,5.891-4.776,10.667-10.667,10.667h-63.996c-5.891,0-10.667-4.776-10.667-10.667l0,0   C277.338,303.442,282.114,298.667,288.005,298.667z" fill="#f2f2f2" data-original="#f2f2f2"/>
	<circle style="" cx="117.338" cy="415.997" r="10.667" fill="#f2f2f2" data-original="#f2f2f2"/>
	<path style="" d="M288.005,405.337h63.996c5.891,0,10.667,4.776,10.667,10.667l0,0   c0,5.891-4.776,10.667-10.667,10.667h-63.996c-5.891,0-10.667-4.776-10.667-10.667l0,0   C277.338,410.112,282.114,405.337,288.005,405.337z" fill="#f2f2f2" data-original="#f2f2f2"/>
</g>
<g xmlns="http://www.w3.org/2000/svg">
	<path style="" d="M117.335,362.667h234.666c5.891,0,10.667,4.776,10.667,10.667l0,0   c0,5.891-4.776,10.667-10.667,10.667H117.335c-5.891,0-10.667-4.776-10.667-10.667l0,0   C106.668,367.442,111.444,362.667,117.335,362.667z" fill="#420fab" data-original="#420fab" class=""/>
	<path style="" d="M117.335,447.997h234.666c5.891,0,10.667,4.776,10.667,10.667l0,0   c0,5.891-4.776,10.667-10.667,10.667H117.335c-5.891,0-10.667-4.776-10.667-10.667l0,0   C106.668,452.772,111.444,447.997,117.335,447.997z" fill="#420fab" data-original="#420fab" class=""/>
	<path style="" d="M117.335,255.997h234.666c5.891,0,10.667,4.776,10.667,10.667l0,0   c0,5.891-4.776,10.667-10.667,10.667H117.335c-5.891,0-10.667-4.776-10.667-10.667l0,0   C106.668,260.772,111.444,255.997,117.335,255.997z" fill="#420fab" data-original="#420fab" class=""/>
</g>
<path xmlns="http://www.w3.org/2000/svg" style="" d="M117.335,149.337h234.666c5.891,0,10.667,4.776,10.667,10.667l0,0  c0,5.891-4.776,10.667-10.667,10.667H117.335c-5.891,0-10.667-4.776-10.667-10.667l0,0  C106.668,154.112,111.444,149.337,117.335,149.337z" fill="#a58cd7" data-original="#a58cd7" class=""/>
<g xmlns="http://www.w3.org/2000/svg">
	<path style="" d="M74.665,170.667L74.665,170.667c5.891,0,10.666,4.776,10.666,10.667V224   c0,5.891-4.776,10.667-10.666,10.667l0,0c-5.891,0-10.667-4.776-10.667-10.667v-42.666   C63.998,175.443,68.774,170.667,74.665,170.667z" fill="#002d62" data-original="#7b5bc6" class=""/>
	<path style="" d="M74.665,277.337L74.665,277.337c5.891,0,10.666,4.776,10.666,10.667v42.666   c0,5.891-4.776,10.667-10.666,10.667l0,0c-5.891,0-10.667-4.776-10.667-10.667v-42.666   C63.998,282.113,68.774,277.337,74.665,277.337z" fill="#002d62" data-original="#7b5bc6" class=""/>
	<path style="" d="M74.665,383.997L74.665,383.997c5.891,0,10.666,4.776,10.666,10.667v42.666   c0,5.891-4.776,10.667-10.666,10.667l0,0c-5.891,0-10.667-4.776-10.667-10.667v-42.666   C63.998,388.773,68.774,383.997,74.665,383.997z" fill="#002d62" data-original="#7b5bc6" class=""/>
</g>
<g xmlns="http://www.w3.org/2000/svg">
</g>
<g xmlns="http://www.w3.org/2000/svg">
</g>
<g xmlns="http://www.w3.org/2000/svg">
</g>
<g xmlns="http://www.w3.org/2000/svg">
</g>
<g xmlns="http://www.w3.org/2000/svg">
</g>
<g xmlns="http://www.w3.org/2000/svg">
</g>
<g xmlns="http://www.w3.org/2000/svg">
</g>
<g xmlns="http://www.w3.org/2000/svg">
</g>
<g xmlns="http://www.w3.org/2000/svg">
</g>
<g xmlns="http://www.w3.org/2000/svg">
</g>
<g xmlns="http://www.w3.org/2000/svg">
</g>
<g xmlns="http://www.w3.org/2000/svg">
</g>
<g xmlns="http://www.w3.org/2000/svg">
</g>
<g xmlns="http://www.w3.org/2000/svg">
</g>
<g xmlns="http://www.w3.org/2000/svg">
</g>
</g></svg>
